<?xml version="1.0" standalone="no"?>
<!DOCTYPE svg PUBLIC "-//W3C//DTD SVG 1.1//EN" "http://www.w3.org/Graphics/SVG/1.1/DTD/svg11.dtd" >
<svg xmlns="http://www.w3.org/2000/svg">
<metadata></metadata>
<defs>
<font id="playfair_displayregular" horiz-adv-x="1290" >
<font-face units-per-em="2048" ascent="1638" descent="-410" />
<missing-glyph horiz-adv-x="510" />
<glyph unicode="&#xfb01;" horiz-adv-x="1268" d="M52 1012v41h164q0 277 148 415q63 61 159 97.5t224 36.5q84 0 156.5 -17t117.5 -45q70 -44 70 -113q0 -36 -18 -66.5t-48 -48.5t-65 -18t-65.5 18t-48.5 48t-18 65q0 37 18.5 67.5t49.5 47.5q-47 31 -149 31q-204 0 -291 -158q-30 -54 -43 -134.5t-13 -225.5h330 q128 0 201.5 5t138.5 19v-887q0 -57 15.5 -89t49 -45t91.5 -13v-43l-31 1q-126 7 -217 7t-217 -7l-31 -1v43q58 0 91.5 13t49 45t15.5 89v641q0 95 -34.5 138t-121.5 43h-330v-822q0 -83 44 -115t133 -32v-43q-12 0 -46 2q-180 6 -223 6q-54 0 -213 -6q-26 -2 -35 -2v43 q58 0 91.5 13t49 45t15.5 89v822h-164z" />
<glyph unicode="&#xfb02;" horiz-adv-x="1272" d="M52 1012v41h164q0 115 9 194.5t37.5 145.5t84.5 114q109 95 277 95q39 0 117 -12q95 -13 145 -13q103 0 184 29v-1416q0 -57 15.5 -89t49 -45t91.5 -13v-43l-31 1q-126 7 -217 7t-217 -7l-31 -1v43q58 0 91.5 13t49 45t15.5 89v1141q0 63 -14 102.5t-42 67.5 q-36 36 -91 53t-105 17q-102 0 -162 -64q-43 -43 -57.5 -107t-14.5 -155v-192h261v-41h-261v-822q0 -83 44 -115t133 -32v-43q-12 0 -46 2q-180 6 -223 6q-54 0 -213 -6q-26 -2 -35 -2v43q58 0 91.5 13t49 45t15.5 89v822h-164z" />
<glyph horiz-adv-x="0" />
<glyph horiz-adv-x="682" />
<glyph unicode="&#xd;" horiz-adv-x="0" />
<glyph unicode=" "  horiz-adv-x="510" />
<glyph unicode="&#x09;" horiz-adv-x="510" />
<glyph unicode="&#xa0;" horiz-adv-x="510" />
<glyph unicode="!" horiz-adv-x="537" d="M136 102q0 35 17.5 65.5t48 48t65.5 17.5t65.5 -17.5t48 -48t17.5 -65.5t-17.5 -65t-48 -48t-65.5 -18t-65.5 18t-48 48t-17.5 65zM173 1487q0 59 26 87t68 28q41 0 67.5 -28.5t26.5 -86.5q0 -87 -28 -365q-23 -228 -35 -390.5t-12 -330.5h-37q0 169 -12.5 337t-35.5 384 q-28 278 -28 365z" />
<glyph unicode="&#x22;" horiz-adv-x="610" d="M120 1399q0 43 21 68.5t53 27.5q32 0 52.5 -25.5t20.5 -68.5q0 -58 -6 -108.5t-21 -135.5q-19 -104 -32 -199h-29q-14 96 -30 188q-15 88 -22 141t-7 112zM121 958zM343 1399q0 43 21 68.5t53 27.5q32 0 52.5 -25.5t20.5 -68.5q0 -58 -6 -108.5t-21 -135.5 q-19 -104 -32 -199h-29q-14 96 -30 188q-15 88 -22 141t-7 112z" />
<glyph unicode="#" horiz-adv-x="1305" d="M97 506l8 41h302l66 342h-300l6 41h302l59 303h41l-59 -303h342l59 303h41l-59 -303h300l-6 -41h-302l-66 -342h301l-9 -41h-300l-58 -299h-41l58 299h-342l-58 -299h-41l58 299h-302zM448 547h342l66 342h-342z" />
<glyph unicode="$" horiz-adv-x="1071" d="M110 -14q8 112 8 491h47q12 -175 75.5 -295.5t192.5 -156.5v665q-101 63 -167 120t-106 133t-40 175q0 103 41.5 177.5t112 117.5t159.5 55v252h41v-248l31 1q58 0 100 -9v256h41v-266q48 -16 109 -57q44 -29 69 -29q19 0 29 21.5t16 68.5h48q-11 -113 -11 -418h-47 q-9 127 -61.5 228.5t-151.5 142.5v-608q116 -73 186.5 -132.5t112 -135t41.5 -175.5q0 -109 -44 -189.5t-120.5 -129t-175.5 -63.5v-248h-41v243q-34 -2 -53 -2q-30 0 -78 4v-245h-41v251q-81 17 -162 66q-44 29 -69 29q-19 0 -29 -21.5t-16 -68.5h-47zM273 1196 q0 -84 40.5 -144t119.5 -115v483q-73 -24 -116.5 -83.5t-43.5 -140.5zM474 17q33 -5 64 -5q36 0 67 7v563q-49 35 -121 77l-10 6v-648zM474 909l82 -51q30 -17 49 -30v596q-36 10 -82 10q-28 0 -49 -4v-521zM646 31q72 27 115 91t43 163q0 81 -40 144.5t-118 123.5v-522z " />
<glyph unicode="%" horiz-adv-x="1520" d="M71 1214q0 101 39.5 179.5t109 122t156.5 43.5q91 0 160 -39.5t107 -115t38 -179.5q0 -102 -39.5 -180t-108.5 -121t-157 -43q-91 0 -160 39.5t-107 115t-38 178.5zM152 -86l1198 1774l39 -27l-1198 -1774zM214 1217q0 -146 44 -222.5t122 -76.5q156 0 156 303 q0 148 -43 224.5t-121 76.5q-158 0 -158 -305zM833 305q0 101 39.5 179t109 121.5t156.5 43.5q91 0 160 -39.5t107 -115t38 -179.5q0 -101 -39.5 -179.5t-109 -121.5t-156.5 -43q-92 0 -160.5 39.5t-106.5 115t-38 179.5zM976 307q0 -146 43.5 -222.5t122.5 -76.5 q155 0 155 303q0 148 -42.5 224.5t-120.5 76.5q-158 0 -158 -305z" />
<glyph unicode="&#x26;" horiz-adv-x="1714" d="M110 481q0 135 67 228t152.5 141.5t158.5 67.5q-100 43 -153 114t-53 150q0 68 40 126.5t118 94t188 35.5q137 0 213 -62q38 -31 57 -68.5t19 -72.5q0 -49 -35 -79t-80 -30q-44 0 -75.5 28t-31.5 75q0 44 30.5 76t78.5 36q-9 27 -52 46.5t-104 19.5q-107 0 -172 -64 t-65 -180q0 -137 104 -233q71 12 127 12q38 0 60 -12t22 -35q0 -18 -15.5 -28.5t-41.5 -10.5q-30 0 -64 11t-57 21.5t-29 12.5q-266 -79 -266 -336q0 -137 72 -237t197 -152.5t280 -52.5q146 0 269 45.5t196 131t73 198.5q0 80 -43.5 164.5t-162.5 132.5q-173 -54 -236 -78 q-86 -33 -133 -75t-47 -103q0 -50 29.5 -87.5t73.5 -57t85 -19.5q35 0 76.5 12t46.5 33q-39 7 -67.5 32t-28.5 72q0 48 32 77.5t80 29.5q49 0 79 -30.5t30 -80.5q0 -55 -37 -95t-93.5 -60.5t-113.5 -20.5q-62 0 -120.5 26t-96 80t-37.5 134q0 104 70.5 177t212.5 122 q44 14 148 44q242 67 352 117q97 46 136.5 93.5t39.5 103.5q0 57 -33 104.5t-87.5 75t-117.5 27.5q-52 0 -61 -18q27 -14 42 -40.5t15 -54.5q0 -42 -34 -71t-81 -29q-44 0 -76 26.5t-32 75.5q0 50 34 82t85.5 46t105.5 14q85 0 153 -33.5t107 -96t39 -147.5 q0 -98 -53 -170.5t-141 -116.5q-75 -36 -304 -107q115 -48 169.5 -139t54.5 -208q0 -127 -75.5 -239.5t-217.5 -181.5t-332 -69q-179 0 -330.5 62.5t-242 178.5t-90.5 269z" />
<glyph unicode="'" horiz-adv-x="387" d="M120 1399q0 43 21 68.5t53 27.5q32 0 52.5 -25.5t20.5 -68.5q0 -58 -6 -108.5t-21 -135.5q-19 -104 -32 -199h-29q-14 96 -30 188q-15 88 -22 141t-7 112z" />
<glyph unicode="(" horiz-adv-x="602" d="M90 0zM91 639q0 -308 117.5 -562t333.5 -450l28 27q-167 195 -237 430.5t-70 554.5t70 554.5t237 430.5l-28 27q-216 -196 -333.5 -450t-117.5 -562z" />
<glyph unicode=")" horiz-adv-x="602" d="M32 -346q167 195 237 430.5t70 554.5t-70 554.5t-237 430.5l28 27q216 -196 333.5 -450t117.5 -562t-117.5 -562t-333.5 -450z" />
<glyph unicode="*" horiz-adv-x="1008" d="M119 877q0 47 68 88q30 17 67 29t111 31q92 25 126 35q-60 18 -121 33q-76 20 -115.5 32.5t-69.5 29.5q-65 39 -65 88q0 18 10 35q16 32 56 32q33 0 75 -24q31 -18 62 -46t86 -83q53 -55 88 -88q-9 39 -31 118q-20 74 -29.5 117t-9.5 78q0 57 22 84t54 27q31 0 52.5 -27 t21.5 -84q0 -35 -8.5 -75t-29.5 -115q10 40 -32 -121q34 32 91 89q99 101 144 128q42 23 73 23q44 0 63 -35q9 -16 9 -31q0 -49 -69 -88q-30 -18 -68.5 -30t-109.5 -31q-65 -16 -126 -34q41 -12 123 -34q134 -34 183 -61q66 -38 66 -88q0 -18 -10 -35q-18 -32 -57 -32 q-33 0 -75 24q-31 18 -63.5 47t-86.5 84l-85 84l33 -123q21 -77 29.5 -116.5t9.5 -72.5q-1 -57 -24 -83.5t-56 -26.5q-30 0 -51 26t-21 84q0 35 8.5 73.5t28.5 115.5l33 123q-46 -43 -90 -89q-52 -53 -84 -82t-62 -46q-40 -23 -73 -23q-43 0 -62 35q-9 16 -9 31z" />
<glyph unicode="+" horiz-adv-x="1202" d="M87 696v62h477v483h74v-483h475v-62h-475v-481h-74v481h-477z" />
<glyph unicode="," horiz-adv-x="535" d="M126 102q0 56 38 93.5t93 37.5q79 0 121 -65q35 -54 35 -135q0 -103 -52.5 -184.5t-158.5 -131.5l-19 37q64 27 110 84.5t46 116.5q0 25 -6 43q-35 -27 -76 -27q-56 0 -93.5 35.5t-37.5 95.5z" />
<glyph unicode="-" horiz-adv-x="1022" d="M140 492v118h740v-118h-740z" />
<glyph unicode="." horiz-adv-x="516" d="M126 102q0 35 17.5 65.5t48 48t65.5 17.5t65.5 -17.5t48 -48t17.5 -65.5t-17.5 -65t-48 -48t-65.5 -18t-65.5 18t-48 48t-17.5 65z" />
<glyph unicode="/" horiz-adv-x="762" d="M69 -29l557 1508h67l-557 -1508h-67z" />
<glyph unicode="0" horiz-adv-x="1229" d="M105 512q0 162 64.5 292t182.5 204.5t272 74.5q143 0 255.5 -67t176 -189t63.5 -282q0 -163 -65.5 -294t-183 -205.5t-269.5 -74.5q-142 0 -255 67t-177 189.5t-64 284.5zM304 518q0 -176 42 -290.5t113.5 -167t160.5 -52.5q88 0 156.5 63.5t106.5 183.5t38 284 q0 175 -42 289t-113.5 166.5t-160.5 52.5q-88 0 -156.5 -63t-106.5 -182.5t-38 -283.5z" />
<glyph unicode="1" horiz-adv-x="758" d="M95 928v45q150 3 247.5 26.5t174.5 77.5v-866q0 -66 19.5 -102t62 -51t115.5 -15v-43q-10 0 -42 2q-186 6 -241 6q-62 0 -266 -6q-38 -2 -49 -2v43q109 0 163 36.5t54 131.5v496q0 99 -20.5 145t-69 61t-148.5 15z" />
<glyph unicode="2" horiz-adv-x="981" d="M95 827q54 112 153 184t251 72q143 0 225 -67.5t82 -190.5q0 -84 -43.5 -163t-106.5 -145t-165 -157q-145 -130 -199 -202h416q56 0 83 9.5t38 30.5t16 64h35q0 -188 8 -272q-46 10 -305 10h-480v35q32 35 120 117q119 111 195.5 196t132.5 196t56 236q0 221 -205 221 q-167 0 -274 -192z" />
<glyph unicode="3" horiz-adv-x="924" d="M75 -272q145 3 274 59.5t209 162.5t80 251q0 79 -26.5 142.5t-76 101t-114.5 42.5q-9 -4 -32 -13t-38 -13t-26 -4q-33 0 -33 26q0 18 15 28.5t38 10.5q13 0 39 -4l33 -4q80 61 118.5 137t38.5 158q0 94 -46.5 139t-131.5 45q-86 0 -156 -45.5t-116 -136.5l-35 16 q118 256 375 256q85 0 152 -28t105 -81t38 -124q0 -76 -42.5 -143t-112 -116.5t-150.5 -78.5q100 -2 186 -37t139.5 -104t53.5 -170q0 -149 -113 -265.5t-289.5 -180.5t-355.5 -64v37z" />
<glyph unicode="4" horiz-adv-x="1012" d="M34 111v43l665 929h33v-835h25q56 0 83 9.5t38 30.5t16 64h35q0 -172 8 -252q-31 8 -205 10v-399h-164v400h-534zM155 248h413v584z" />
<glyph unicode="5" horiz-adv-x="850" d="M91 -266q125 1 235 54t178 158t68 253q0 130 -67 202t-191 72q-50 0 -85 -8t-83 -27l-20 13l39 610q41 -8 110 -8h232q56 0 83 9.5t37.5 30.5t16.5 64h39q0 -208 8 -299q-44 10 -284 10h-218l-24 -395q56 29 110 45.5t130 16.5q120 0 201 -40.5t121 -112t40 -163.5 q0 -152 -99.5 -271t-256.5 -185t-320 -66v37z" />
<glyph unicode="6" horiz-adv-x="1059" d="M112 553q0 287 109 486t267.5 305t317.5 137l8 -41q-125 -40 -224.5 -110.5t-175.5 -216.5t-97 -384q47 87 129.5 127.5t164.5 40.5q98 0 182.5 -53t135.5 -154t51 -239q0 -149 -60.5 -258t-163 -165.5t-227.5 -56.5q-130 0 -223.5 68.5t-143.5 199.5t-50 314zM310 557 q0 -203 34.5 -324.5t88.5 -171t117 -49.5q64 0 116 44t83.5 139t31.5 241q0 208 -61 305t-160 97q-72 0 -142.5 -42.5t-104.5 -134.5q-3 -49 -3 -104z" />
<glyph unicode="7" horiz-adv-x="831" d="M54 1063q46 -10 305 -10h455v-43q-34 -80 -107 -219q-79 -151 -129 -264t-84.5 -257t-33.5 -307q0 -48 5 -98q3 -69 3 -64q0 -46 -26.5 -75t-69.5 -29q-45 0 -68.5 33t-23.5 82q0 157 47.5 309.5t115.5 281.5t180 314q69 114 97 164h-485q-56 0 -83.5 -9.5t-38 -30.5 t-16.5 -65h-35q0 202 -8 287z" />
<glyph unicode="8" horiz-adv-x="1065" d="M105 315q0 142 90 252.5t239 184.5q-82 66 -137 123t-89.5 128t-34.5 156q0 94 49.5 166.5t135 113t190.5 40.5q94 0 171 -32.5t122 -96t45 -152.5q0 -110 -67.5 -202t-192.5 -176q113 -83 177.5 -139.5t110.5 -136.5t46 -182q0 -115 -57 -204t-158 -138t-228 -49 q-112 0 -205.5 39t-150 116.5t-56.5 188.5zM286 346q0 -145 59 -241.5t184 -96.5q70 0 128.5 31.5t93 92t34.5 144.5q0 95 -44 173t-104 134t-172 145q-179 -131 -179 -382zM333 1223q0 -81 34.5 -147t89.5 -119t138 -114q127 121 127 328q0 124 -51.5 197.5t-145.5 73.5 q-54 0 -98 -27t-69 -76.5t-25 -115.5z" />
<glyph unicode="9" horiz-adv-x="1042" d="M75 604q0 149 60.5 257.5t163 165t226.5 56.5q130 0 224 -63.5t144 -185t50 -291.5q0 -261 -109.5 -443t-268.5 -279.5t-316 -123.5l-8 41q116 33 211 90.5t171 174t105 304.5q-49 -77 -128 -113t-157 -36q-97 0 -181.5 53t-135.5 154t-51 239zM273 618 q0 -208 61.5 -304.5t160.5 -96.5q69 0 137 38.5t104 122.5q8 80 8 161q0 187 -34.5 299.5t-88 158t-116.5 45.5q-64 0 -116.5 -44t-84 -139t-31.5 -241z" />
<glyph unicode=":" horiz-adv-x="545" d="M140 102q0 35 17.5 65.5t48 48t65.5 17.5t65.5 -17.5t48 -48t17.5 -65.5t-17.5 -65t-48 -48t-65.5 -18t-65.5 18t-48 48t-17.5 65zM140 950q0 35 17.5 65.5t48 48t65.5 17.5t65.5 -17.5t48 -48t17.5 -65.5t-17.5 -65t-48 -48t-65.5 -18t-65.5 18t-48 48t-17.5 65zM141 0z " />
<glyph unicode=";" horiz-adv-x="584" d="M149 102q0 56 38 93.5t93 37.5q79 0 121 -65q35 -54 35 -135q0 -103 -52.5 -184.5t-158.5 -131.5l-19 37q64 27 110 84.5t46 116.5q0 25 -6 43q-35 -27 -76 -27q-56 0 -93.5 35.5t-37.5 95.5zM150 0zM163 950q0 35 17.5 65.5t48 48t65.5 17.5t65.5 -17.5t48 -48 t17.5 -65.5t-17.5 -65t-48 -48t-65.5 -18t-65.5 18t-48 48t-17.5 65z" />
<glyph unicode="&#x3c;" horiz-adv-x="1245" d="M60 727l998 465l35 -74l-838 -391l838 -391l-35 -74z" />
<glyph unicode="=" horiz-adv-x="1325" d="M149 553v61h1026v-61h-1026zM149 840v61h1026v-61h-1026z" />
<glyph unicode="&#x3e;" horiz-adv-x="1245" d="M151 262zM152 336l35 -74l998 465l-998 465l-35 -74l838 -391z" />
<glyph unicode="?" horiz-adv-x="940" d="M65 1380q0 83 96 148q108 74 278 74q128 0 225 -44.5t151 -128t54 -196.5q0 -168 -123 -284t-337 -171v-299h-41v318q130 48 200 108.5t94.5 130t24.5 158.5q0 186 -76.5 276.5t-210.5 90.5q-59 0 -113.5 -17t-86.5 -57q39 -8 62.5 -35.5t23.5 -69.5q0 -50 -32.5 -80 t-80.5 -30q-47 0 -77.5 30.5t-30.5 77.5zM259 102q0 35 17.5 65.5t48 48t65.5 17.5t65.5 -17.5t48 -48t17.5 -65.5t-17.5 -65t-48 -48t-65.5 -18t-65.5 18t-48 48t-17.5 65z" />
<glyph unicode="@" horiz-adv-x="1798" d="M99 293q0 273 133.5 522t361 401t495.5 152q185 0 328.5 -59.5t227 -185.5t83.5 -318q0 -219 -91 -390.5t-230 -266.5t-273 -95q-148 0 -148 133q0 33 7 66t14.5 56.5t9.5 31.5v2q-58 -149 -134 -219t-182 -70q-110 0 -160 67.5t-50 180.5q0 152 73 311t187 263t227 104 q125 0 148 -109l16 80q117 0 184 29l-172 -752q-13 -42 -13 -70q0 -29 14.5 -41t45.5 -12q87 0 203 86.5t199.5 246.5t83.5 370q0 182 -79.5 299t-213.5 171t-303 54q-247 0 -466.5 -142.5t-352 -381t-132.5 -510.5q0 -204 78 -336t216 -193t321 -61q236 0 422 111l14 -27 q-79 -56 -192.5 -88.5t-245.5 -32.5q-196 0 -342.5 66.5t-229 206t-82.5 350.5zM665 313q0 -198 106 -198q52 0 106 53t102 153t82 235l51 249q-7 127 -126 127q-85 0 -159 -93t-118 -237.5t-44 -288.5z" />
<glyph unicode="A" d="M-14 0v41q102 23 161 178l482 1241h33l499 -1288q50 -127 142 -131v-41q-84 6 -220 6q-175 0 -262 -6v41q78 3 111.5 19t33.5 57q0 35 -24 96l-126 336h-494l-84 -217q-41 -104 -41 -168q0 -65 43.5 -93t134.5 -30v-41q-117 6 -236 6q-92 0 -153 -6zM337 590h464 l-229 611z" />
<glyph unicode="B" horiz-adv-x="1276" d="M85 0v41q74 3 107.5 16t46 48t12.5 112v1016q0 77 -12.5 112t-46 48t-107.5 16v41q85 -6 250 -6q36 0 222 3l87 1q140 0 237 -40.5t146 -113t49 -168.5q0 -118 -74.5 -212t-236.5 -144v-4q226 -30 322 -129.5t96 -239.5q0 -116 -59.5 -206t-170.5 -140.5t-262 -50.5 l-94 2q-132 4 -258 4q-168 0 -254 -6zM441 217q0 -74 12 -109t44 -48t98 -13q383 0 383 359q0 161 -87.5 245t-277.5 84h-172v-518zM441 770h138q167 0 234 91t67 243q0 154 -68 229.5t-219 75.5q-64 0 -96 -14.5t-44 -51.5t-12 -110v-463z" />
<glyph unicode="C" horiz-adv-x="1409" d="M108 713q0 226 83 400t231 270t337 96q122 0 208.5 -35t168.5 -98q22 -18 40 -18q42 0 52 122h47q-8 -133 -8 -471h-47q-15 92 -27.5 143t-29.5 86.5t-46 73.5q-62 80 -157 120t-205 40q-133 0 -233 -88t-155 -251t-55 -382q0 -223 60 -383t165 -243t238 -83 q102 0 199 39t151 117q42 56 60 121.5t35 202.5h47q0 -353 8 -492h-47q-5 64 -16.5 92.5t-33.5 28.5q-16 0 -42 -17q-61 -43 -112.5 -70.5t-117.5 -45t-149 -17.5q-195 0 -341.5 88t-227 255.5t-80.5 398.5z" />
<glyph unicode="D" horiz-adv-x="1481" d="M85 0v41q74 3 107.5 16t46 48t12.5 112v1016q0 77 -12.5 112t-46 48t-107.5 16v41q110 -7 200 -7l50 1l84 2q160 4 225 4q362 0 542.5 -181t180.5 -528q0 -223 -87.5 -390.5t-254.5 -259t-399 -91.5q-48 0 -120 3q-171 3 -167 3q-168 0 -254 -6zM441 213q0 -74 12 -110.5 t44.5 -51t97.5 -14.5q218 0 342 79t174.5 230.5t50.5 386.5q0 236 -55 384.5t-179.5 222t-334.5 73.5q-64 0 -96 -14.5t-44 -51.5t-12 -110v-1024z" />
<glyph unicode="E" horiz-adv-x="1247" d="M85 0v41q74 3 107.5 16t46 48t12.5 112v1016q0 77 -12.5 112t-46 48t-107.5 16v41q201 -6 594 -6q301 0 428 6q-14 -134 -14 -242q0 -80 6 -127h-47q-15 133 -37.5 198t-76 94.5t-161.5 29.5h-170q-74 0 -107.5 -12t-46 -46.5t-12.5 -111.5v-483h136q72 0 110.5 34t52 80 t22.5 116q1 18 5 40h47q-7 -101 -7 -193l1 -98q0 -104 12 -291h-47l-3 29q-9 81 -23 129t-53.5 80.5t-116.5 32.5h-136v-492q0 -77 12.5 -111.5t46 -46.5t107.5 -12h150q128 0 194.5 34t96 109t45.5 220h47q-6 -55 -6 -148q0 -116 14 -262q-139 6 -469 6q-393 0 -594 -6z " />
<glyph unicode="F" horiz-adv-x="1165" d="M85 0v41q74 3 107.5 16t46 48t12.5 112v1016q0 77 -12.5 112t-46 48t-107.5 16v41q201 -6 594 -6q301 0 428 6q-14 -146 -14 -262q0 -103 6 -168h-47q-16 159 -41 235.5t-86.5 112t-188.5 35.5h-129q-74 0 -107.5 -12t-46 -46.5t-12.5 -111.5v-504h150q72 0 110.5 34 t52 80t22.5 116q1 18 5 40h47q-7 -100 -7 -193l1 -97q0 -108 13 -291h-48l-3 28q-9 81 -23 129t-53.5 80.5t-116.5 32.5h-150v-471q0 -77 16 -112t58 -48t133 -16v-41q-106 6 -301 6q-176 0 -262 -6z" />
<glyph unicode="G" horiz-adv-x="1440" d="M110 700q0 235 84.5 411.5t234.5 272t340 95.5q83 0 147.5 -17.5t112 -44.5t109.5 -71q26 -21 41 -21q39 0 51 125h47q-8 -133 -8 -471h-47q-18 110 -39 180.5t-64 122.5q-60 74 -155 117t-199 43q-135 0 -237 -88t-158 -250.5t-56 -380.5q0 -246 52.5 -403t160 -232.5 t275.5 -75.5q123 0 213 64q37 25 48 48t11 64v197q0 85 -16 124.5t-58 54t-133 18.5v41q101 -7 289 -7q144 0 213 7v-41q-48 -4 -68.5 -16.5t-28 -46.5t-7.5 -113v-406h-41q-2 42 -17 79.5t-39 37.5q-13 0 -25 -6.5t-42 -28.5q-72 -55 -148.5 -83t-171.5 -28q-210 0 -361 87 t-230.5 251t-79.5 391z" />
<glyph unicode="H" horiz-adv-x="1550" d="M85 0v41q74 3 107.5 16t46 48t12.5 112v1016q0 77 -12.5 112t-46 48t-107.5 16v41q85 -6 262 -6q166 0 260 6v-41q-74 -3 -107.5 -16t-46 -48t-12.5 -112v-483h666v483q0 77 -12.5 112t-46 48t-107.5 16v41q96 -6 260 -6q176 0 262 6v-41q-74 -3 -107.5 -16t-46 -48 t-12.5 -112v-1016q0 -77 12.5 -112t46 -48t107.5 -16v-41q-85 6 -262 6q-164 0 -260 -6v41q74 3 107.5 16t46 48t12.5 112v492h-666v-492q0 -77 12.5 -112t46 -48t107.5 -16v-41q-94 6 -260 6q-176 0 -262 -6z" />
<glyph unicode="I" horiz-adv-x="694" d="M85 0v41q74 3 107.5 16t46 48t12.5 112v1016q0 77 -12.5 112t-46 48t-107.5 16v41q85 -6 262 -6q166 0 260 6v-41q-74 -3 -107.5 -16t-46 -48t-12.5 -112v-1016q0 -77 12.5 -112t46 -48t107.5 -16v-41q-94 6 -260 6q-176 0 -262 -6z" />
<glyph unicode="J" horiz-adv-x="668" d="M-307 -207q0 48 30.5 78.5t77.5 30.5q49 0 81 -30t32 -81q0 -43 -23 -69.5t-63 -34.5q18 -18 56.5 -25.5t74.5 -7.5q89 0 153.5 46t92.5 128q21 64 28 159.5t7 309.5v936q0 77 -12.5 112t-46 48t-107.5 16v41q85 -6 262 -6q164 0 260 6v-41q-74 -3 -107.5 -16t-46 -48 t-12.5 -112v-750q0 -174 -6.5 -308.5t-28.5 -225.5q-23 -96 -81 -171.5t-147.5 -119t-203.5 -43.5q-100 0 -172 37q-98 51 -98 141z" />
<glyph unicode="K" horiz-adv-x="1341" d="M85 0v41q74 3 107.5 16t46 48t12.5 112v1016q0 77 -12.5 112t-46 48t-107.5 16v41q85 -6 262 -6q166 0 260 6v-41q-74 -3 -107.5 -16t-46 -48t-12.5 -112v-459q148 5 234 115l196 250q105 133 105 196q0 71 -127 74v41q117 -6 235 -6q114 0 175 6v-41q-68 -10 -127.5 -44 t-114.5 -105l-334 -428l475 -666q34 -52 76 -81t104 -44v-41q-97 6 -245 6q-111 0 -211 -6v41q48 2 71 12t23 31q0 19 -21 49l-299 451q-41 63 -71.5 93t-61.5 41.5t-82 14.5v-516q0 -77 12.5 -112t46 -48t107.5 -16v-41q-94 6 -260 6q-176 0 -262 -6z" />
<glyph unicode="L" horiz-adv-x="1204" d="M85 0v41q74 3 107.5 16t46 48t12.5 112v1016q0 77 -12.5 112t-46 48t-107.5 16v41q85 -6 262 -6q166 0 260 6v-41q-74 -3 -107.5 -16t-46 -48t-12.5 -112v-1016q0 -77 12.5 -111.5t46 -46.5t107.5 -12h150q128 0 194.5 36t96 115t45.5 232h47q-6 -64 -6 -168 q0 -116 14 -262q-139 6 -469 6q-393 0 -594 -6z" />
<glyph unicode="M" horiz-adv-x="1784" d="M85 0v41q71 3 105.5 20.5t47.5 57.5t13 119v995q0 77 -12.5 112t-46 48t-107.5 16v41q67 -6 190 -6q108 0 175 6l450 -1188l440 1182h97q164 0 260 6v-41q-74 -3 -107.5 -16t-46 -48t-12.5 -112v-1016q0 -77 12.5 -112t46 -48t107.5 -16v-41q-96 6 -260 6q-176 0 -262 -6 v41q74 3 107 16t45.5 48t12.5 112v1096l-493 -1323h-33l-516 1329v-1081q0 -79 14 -119t52.5 -57.5t119.5 -20.5v-41q-73 6 -209 6q-122 0 -190 -6z" />
<glyph unicode="N" horiz-adv-x="1446" d="M85 0v41q71 3 105.5 20.5t47.5 57.5t13 119v995q0 77 -12.5 112t-46 48t-107.5 16v41q67 -6 190 -6q92 0 160 6l723 -1114v876q0 79 -13.5 119t-52.5 57.5t-120 20.5v41q73 -6 209 -6q122 0 190 6v-41q-71 -3 -105.5 -20.5t-47.5 -57.5t-13 -119v-1222h-47l-860 1329 v-1081q0 -79 14 -119t52.5 -57.5t119.5 -20.5v-41q-73 6 -209 6q-122 0 -190 -6z" />
<glyph unicode="O" horiz-adv-x="1518" d="M108 713q0 226 83 400t231 270t337 96q195 0 341.5 -88t227 -255.5t80.5 -398.5q0 -226 -83 -400t-231 -270t-337 -96q-195 0 -341.5 88t-227 255.5t-80.5 398.5zM312 721q0 -213 60 -375t163.5 -250t229.5 -88q131 0 230.5 91.5t153.5 255t54 374.5q0 213 -60 375 t-163 250t-229 88q-131 0 -231 -91.5t-154 -255t-54 -374.5z" />
<glyph unicode="P" horiz-adv-x="1198" d="M85 0v41q74 3 107.5 16t46 48t12.5 112v1016q0 77 -12.5 112t-46 48t-107.5 16v41q85 -6 250 -6q36 0 222 3l87 1q161 0 272 -50.5t166.5 -141.5t55.5 -212q0 -112 -50 -216t-170.5 -173t-318.5 -69h-158v-369q0 -77 16 -112t58 -48t133 -16v-41q-106 6 -301 6 q-176 0 -262 -6zM441 627h138q200 0 277 107t77 288q0 132 -34 217t-108.5 127.5t-197.5 42.5q-64 0 -96 -14.5t-44 -51.5t-12 -110v-606z" />
<glyph unicode="Q" horiz-adv-x="1518" d="M108 713q0 226 83 400t231 270t337 96q195 0 341.5 -88t227 -255.5t80.5 -398.5q0 -213 -74 -380t-207 -267t-305 -116v-1q-50 -5 -88.5 -18t-91.5 -36q-72 -31 -123 -46q225 -45 384.5 -71.5t264.5 -26.5q146 0 231 42.5t132 135.5l31 -12q-46 -157 -129 -234 q-102 -92 -277 -92q-67 0 -132.5 15.5t-126 38.5t-152.5 64q-165 72 -248 99q-23 7 -28 8l-21 6q-90 -30 -170 -30q-95 0 -95 41q0 43 111 43q74 0 154 -17q63 17 148 56q44 21 83 36q-173 17 -301.5 109.5t-199 253t-70.5 375.5zM312 721q0 -213 60 -375t163.5 -250 t229.5 -88q131 0 230.5 91.5t153.5 255t54 374.5q0 213 -60 375t-163 250t-229 88q-131 0 -231 -91.5t-154 -255t-54 -374.5z" />
<glyph unicode="R" horiz-adv-x="1327" d="M85 0v41q74 3 107.5 16t46 48t12.5 112v1016q0 77 -12.5 112t-46 48t-107.5 16v41q86 -6 250 -6q36 0 222 3l87 1q160 0 271 -46.5t167 -127t56 -182.5q0 -80 -38 -161.5t-127 -146t-233 -86.5l25 -4q92 -15 147 -45.5t87.5 -83.5t52.5 -141l51 -209q13 -63 26.5 -98.5 t32 -52.5t46.5 -17q34 0 56 17.5t56 60.5l31 -23q-48 -69 -95 -100t-124 -31q-84 0 -138 49t-82 173l-45 204q-24 107 -45.5 164.5t-65 92t-120.5 34.5h-195v-471q0 -77 12.5 -112t46 -48t107.5 -16v-41q-94 6 -260 6q-176 0 -262 -6zM441 729h138q138 0 216 44t108 118 t30 178q0 168 -80 254t-260 86q-64 0 -96 -14.5t-44 -51.5t-12 -110v-504z" />
<glyph unicode="S" horiz-adv-x="1106" d="M128 -14q8 112 8 491h47q14 -208 102 -336.5t271 -128.5q70 0 130.5 29t98 90.5t37.5 153.5q0 79 -38.5 141.5t-104.5 114.5t-176 118q-122 73 -196 131t-121.5 138.5t-47.5 189.5q0 116 52.5 196t140 119.5t192.5 39.5q63 0 108.5 -10.5t75.5 -26t66 -39.5 q46 -29 70 -29q19 0 29 21.5t16 68.5h47q-10 -120 -10 -418h-47q-8 105 -45.5 194t-110 144.5t-180.5 55.5q-72 0 -129 -30t-89 -84t-32 -124q0 -78 35.5 -135t91 -99t156.5 -104l61 -37q129 -81 204 -140.5t120 -138t45 -182.5q0 -126 -58 -213.5t-156.5 -131.5t-220.5 -44 q-98 0 -161 20.5t-119 55.5q-46 29 -70 29q-19 0 -29 -21.5t-16 -68.5h-47z" />
<glyph unicode="T" horiz-adv-x="1272" d="M58 1450q170 -6 578 -6q405 0 575 6q-14 -146 -14 -262q0 -103 6 -168h-47q-16 159 -40.5 235.5t-86 112t-188.5 35.5h-111v-1165q0 -85 16 -124.5t58 -54.5t133 -18v-41q-108 6 -301 6q-205 0 -303 -6v41q91 3 133 18t58 54.5t16 124.5v1165h-111q-127 0 -188.5 -35.5 t-86 -112t-40.5 -235.5h-47q6 65 6 168q0 120 -15 262z" />
<glyph unicode="U" horiz-adv-x="1397" d="M54 1409v41q87 -6 262 -6q165 0 261 6v-41q-74 -3 -107.5 -16t-46 -48t-12.5 -112v-678q0 -164 22 -272t92.5 -174t208.5 -66q217 0 305 139t88 391v639q0 76 -17.5 117t-57 59t-111.5 21v41q74 -6 209 -6q123 0 190 6v-41q-71 -3 -105.5 -20.5t-47 -57.5t-12.5 -119 v-616q0 -147 -19.5 -252.5t-64.5 -181.5q-52 -88 -151.5 -139.5t-223.5 -51.5q-225 0 -344 111q-61 57 -93.5 120.5t-45.5 153.5t-13 234v643q0 77 -12.5 112t-46 48t-107.5 16z" />
<glyph unicode="V" d="M-12 1409v41q83 -6 219 -6q176 0 262 6v-41q-78 -3 -111.5 -19t-33.5 -57q0 -34 24 -96l371 -984l334 865q41 106 41 167q0 65 -44 93.5t-135 30.5v41q117 -6 236 -6q92 0 154 6v-41q-103 -23 -162 -178l-481 -1241h-17h-16l-500 1288q-50 127 -141 131z" />
<glyph unicode="W" horiz-adv-x="1853" d="M-14 1409v41q82 -6 219 -6q147 0 221 6v-41q-54 -4 -77 -20t-23 -51q0 -33 22 -101l300 -913l248 793l-54 161q-42 127 -121 131v41q74 -6 199 -6q175 0 262 6v-41q-53 -2 -81 -7.5t-43.5 -20.5t-15.5 -45q0 -34 21 -99l294 -911l253 792q33 104 33 165q0 68 -41.5 96 t-133.5 30v41q117 -6 236 -6q92 0 154 6v-41q-114 -25 -162 -178l-387 -1241h-17h-16l-356 1055l-326 -1055h-16h-17l-434 1288q-44 126 -141 131z" />
<glyph unicode="X" horiz-adv-x="1298" d="M32 0v41q61 9 116.5 55t114.5 133l309 461l-401 615q-26 41 -45 61.5t-40 29.5t-52 11v43q5 0 27 -2q114 -6 149 -6q137 0 289 8v-43q-137 0 -137 -45q0 -16 18 -45l319 -488l201 301q89 133 89 197q0 43 -39.5 61.5t-119.5 20.5v41q117 -6 236 -6q112 0 174 6v-41 q-62 -9 -117.5 -55.5t-113.5 -132.5l-287 -428l424 -648q26 -41 45 -61.5t40 -29.5t52 -11v-43q-5 0 -27 2q-114 6 -149 6q-105 0 -252 -7l-37 -1v43q80 0 113 7t33 26q0 15 -15 37l-350 536l-221 -330q-78 -116 -78 -180q0 -52 46.5 -74t135.5 -24v-41q-116 6 -276 6 q-113 0 -174 -6z" />
<glyph unicode="Y" horiz-adv-x="1210" d="M-6 1407v43q80 -6 180 -6q199 0 287 6v-43q-144 0 -144 -79q0 -30 21 -71l341 -653l261 520q56 113 56 176q0 58 -45 82.5t-136 26.5v41q117 -6 236 -6q92 0 153 6v-41q-41 -9 -80 -51.5t-84 -130.5l-321 -637v-373q0 -77 12.5 -112t46 -48t107.5 -16v-41q-96 6 -260 6 q-176 0 -263 -6v41q74 3 107.5 16t46 48t12.5 112v309l-415 766q-38 69 -65.5 92t-53.5 23z" />
<glyph unicode="Z" horiz-adv-x="1217" d="M85 0v41l854 1362h-430q-128 0 -194.5 -36t-96 -115t-45.5 -232h-47q6 65 6 168q0 116 -14 262q151 -6 510 -6q348 0 497 6v-41l-847 -1362h432q128 0 194.5 36t96 115t45.5 232h47q-7 -75 -7 -168q0 -106 15 -262q-152 6 -510 6q-350 0 -506 -6z" />
<glyph unicode="[" horiz-adv-x="606" d="M187 -371v1952h351v-39h-166v-1874h166v-39h-351z" />
<glyph unicode="\" horiz-adv-x="762" d="M68 0zM69 1479l557 -1508h67l-557 1508h-67z" />
<glyph unicode="]" horiz-adv-x="606" d="M67 0zM68 -332v-39h351v1952h-351v-39h166v-1874h-166z" />
<glyph unicode="^" horiz-adv-x="1098" d="M146 688q131 63 233 169t150 224h37q49 -118 151 -224t232 -169l-16 -29q-124 45 -240 112t-186 134q-58 -67 -151.5 -134t-192.5 -112z" />
<glyph unicode="_" horiz-adv-x="1210" d="M140 -235h928v-82h-928v82zM141 -235z" />
<glyph unicode="`" horiz-adv-x="457" d="M41 1608q0 34 28 57q19 15 44 15q44 0 79 -46q27 -35 82 -140q75 -146 141 -249l-23 -18q-89 94 -206 196q-85 75 -117 115q-28 37 -28 70z" />
<glyph unicode="a" horiz-adv-x="1020" d="M79 215q0 78 38 133t107 96.5t185 90.5l40 17q74 29 114.5 49t65.5 46.5t25 61.5v127q0 119 -49.5 162.5t-140.5 43.5q-145 0 -203 -73q41 -10 68.5 -43.5t27.5 -81.5q0 -52 -32.5 -81.5t-87.5 -29.5q-52 0 -81.5 35t-29.5 92q0 80 96 146q50 33 123.5 55t163.5 22 q84 0 148 -20.5t100 -56.5q47 -48 64.5 -111.5t17.5 -175.5v-569q0 -51 14.5 -74t48.5 -23q25 0 46 11t46 32l23 -35q-36 -27 -60 -42t-55 -24t-72 -9q-99 0 -137.5 49.5t-38.5 132.5q-60 -99 -144 -140.5t-171 -41.5q-71 0 -130 24.5t-94.5 76t-35.5 128.5zM259 248 q0 -89 45 -134.5t119 -45.5q136 0 231 155v402q-15 -23 -50 -43t-146 -74q-59 -28 -100 -57.5t-70 -79.5t-29 -123z" />
<glyph unicode="b" horiz-adv-x="1153" d="M8 1538v43q64 -6 127 -6q132 0 213 29v-740q45 104 129.5 161.5t190.5 57.5q114 0 201.5 -62.5t137.5 -188t50 -306.5q0 -177 -61.5 -302.5t-165.5 -189t-230 -63.5q-75 0 -146 30.5t-124 89.5l-146 -124l-34 15q14 50 14 118v1258q0 95 -34.5 137.5t-121.5 42.5z M348 120q49 -50 110 -76t126 -26q138 0 206 124.5t68 383.5q0 250 -61.5 373t-188.5 123q-56 0 -107.5 -29.5t-92 -87t-60.5 -138.5v-647z" />
<glyph unicode="c" horiz-adv-x="995" d="M93 514q0 166 60.5 295.5t169.5 201.5t247 72t238 -65q96 -65 96 -158q0 -54 -30.5 -84.5t-77.5 -30.5q-48 0 -80.5 27.5t-32.5 75.5q0 44 24.5 73.5t61.5 39.5q-20 37 -73 61.5t-111 24.5q-75 0 -141 -48t-109 -160t-43 -294q0 -255 82 -370.5t213 -115.5q87 0 166.5 51 t130.5 160l39 -14q-23 -73 -71 -137.5t-125.5 -106t-180.5 -41.5q-128 0 -231 66t-162.5 189t-59.5 288z" />
<glyph unicode="d" horiz-adv-x="1190" d="M98 526v6q0 175 62 299q63 126 168.5 189t232.5 63q78 0 143 -29.5t103 -91.5v398q0 95 -34.5 137.5t-121.5 42.5v43q65 -6 127 -6q132 0 213 29v-1383q0 -95 34.5 -137.5t121.5 -42.5v-43q-65 6 -127 6q-132 0 -213 -29v182q-38 -92 -111.5 -140t-179.5 -48 q-130 0 -224 62t-144 186q-50 122 -50 300v7zM297 526v-7q-1 -241 69 -363q70 -124 209 -123q52 0 99.5 27t82 80.5t50.5 128.5v609q-57 158 -229 158q-83 0 -146 -56q-64 -58 -100 -172q-35 -111 -35 -273v-9z" />
<glyph unicode="e" horiz-adv-x="1036" d="M93 502q0 178 57 309t161.5 201.5t244.5 70.5q184 0 283.5 -111.5t99.5 -338.5h-640q-7 -55 -7 -131q0 -135 44.5 -236t116.5 -155t152 -54q206 0 301 205l41 -16q-24 -72 -76.5 -134.5t-131 -101.5t-175.5 -39q-146 0 -252.5 66.5t-162.5 187t-56 277.5zM296 672h446 q1 16 1 32q0 83 -18 155q-21 85 -66 135t-111 50q-63 0 -116 -40.5t-89 -124t-47 -207.5z" />
<glyph unicode="f" horiz-adv-x="680" d="M52 1012v41h164q0 122 10 203.5t32.5 138.5t62.5 104q40 48 104 75.5t139 27.5q105 0 178 -56q64 -52 64 -127q0 -47 -30.5 -77.5t-78.5 -30.5q-47 0 -79.5 30t-32.5 80q0 42 23.5 69.5t62.5 35.5q-6 19 -33 32t-68 13q-91 0 -133 -76q-23 -41 -30 -122.5t-7 -266.5v-53 h220v-41h-220v-801q0 -95 54 -131.5t163 -36.5v-43q-11 0 -49 2q-204 6 -266 6q-47 0 -206 -6q-28 -2 -36 -2v43q58 0 91.5 13t49 45t15.5 89v822h-164z" />
<glyph unicode="g" horiz-adv-x="1061" d="M38 -197q0 70 73.5 135t183.5 115h-7q-78 0 -141.5 33t-63.5 123q0 70 58.5 133t197.5 126q-90 35 -140 108t-50 184q0 162 103.5 242.5t274.5 80.5q79 0 145 -18q21 114 72 182q55 68 140 68q51 0 79.5 -30t28.5 -77q0 -42 -28 -70t-70 -28q-52 0 -75 31.5t-34 97.5 q-30 -27 -55 -100q-16 -54 -21 -85q93 -34 145 -108t52 -186q0 -109 -49 -181.5t-134 -107.5t-196 -35q-85 0 -151 19q-83 -44 -127.5 -81.5t-44.5 -80.5q0 -34 23 -51t75 -17h481q107 0 173.5 -45t66.5 -145q0 -98 -63.5 -195t-193 -161t-316.5 -64q-107 0 -201.5 21.5 t-152.5 64t-58 102.5zM206 -154q0 -66 44 -110t113 -65t142 -21q91 0 178 32.5t143 98t56 158.5q0 40 -13.5 64.5t-47.5 37t-95 12.5h-381q-65 -33 -102 -90.5t-37 -116.5zM341 760q0 -156 47.5 -221.5t138.5 -65.5q92 0 139.5 65t47.5 222t-47.5 222t-139.5 65 q-91 0 -138.5 -65.5t-47.5 -221.5z" />
<glyph unicode="h" horiz-adv-x="1204" d="M40 0v43q58 0 91.5 13t49 45t15.5 89v1168q0 95 -34.5 137.5t-121.5 42.5v43q65 -6 127 -6q132 0 213 29v-766q51 130 142.5 187.5t205.5 57.5q143 0 217 -77q39 -42 55.5 -103.5t16.5 -165.5v-547q0 -57 15.5 -89t49 -45t91.5 -13v-43q-7 0 -33 2q-165 6 -213 6 q-88 0 -202 -7l-28 -1v43q51 0 80 13t42.5 45t13.5 89v592q0 74 -12 124t-48.5 81t-105.5 31q-83 0 -148.5 -47.5t-102 -132t-36.5 -191.5v-457q0 -57 13.5 -89t42 -45t79.5 -13v-43l-28 1q-117 7 -201 7q-88 0 -216 -7z" />
<glyph unicode="i" horiz-adv-x="600" d="M58 0v43q58 0 91.5 13t49 45t15.5 89v641q0 95 -34.5 138t-121.5 43v43q64 -6 127 -6q130 0 213 28v-887q0 -57 15.5 -89t49 -45t91.5 -13v-43l-31 1q-126 7 -217 7t-217 -7zM59 0zM161 1436q0 35 17.5 65t48 48t65.5 18t65 -18t48 -48t18 -65t-18 -65.5t-48 -48 t-65 -17.5t-65.5 17.5t-48 48t-17.5 65.5z" />
<glyph unicode="j" horiz-adv-x="547" d="M-131 -260q0 47 29.5 76.5t76.5 29.5q49 0 78 -25t29 -75q0 -70 -78 -98q12 -2 35 -2q71 0 115 47q47 59 47 174v964q0 95 -34.5 138t-121.5 43v43q64 -6 127 -6q130 0 213 28v-841q0 -167 -22.5 -291.5t-86.5 -204.5q-47 -61 -113.5 -93t-133.5 -32q-72 0 -115 31 q-45 34 -45 94zM141 1425q0 35 18 65.5t48 48t65 17.5t65.5 -17.5t48 -48t17.5 -65.5t-17.5 -65t-48 -48t-65.5 -18t-65 18t-48 48t-18 65z" />
<glyph unicode="k" horiz-adv-x="1126" d="M40 0v43q58 0 91.5 13t49 45t15.5 89v1170q0 95 -34.5 137.5t-121.5 42.5v43q65 -6 127 -6q132 0 213 29v-1017q60 8 100 28t76 57l152 157q65 68 65 113q0 36 -41 53t-110 17v41q142 -8 231 -8q96 0 178 8v-41q-100 -9 -184 -96l-249 -262l370 -506q38 -52 69 -76.5 t74 -30.5v-43q-124 8 -166 8q-82 0 -199 -7l-28 -1v43q29 0 46 11t17 28q0 14 -12 31l-235 344q-37 52 -68 70t-86 20v-357q0 -57 13.5 -89t42 -45t79.5 -13v-43l-28 1q-117 7 -199 7q-91 0 -217 -7z" />
<glyph unicode="l" horiz-adv-x="586" d="M44 0v43q58 0 91.5 13t49 45t15.5 89v1170q0 95 -34.5 137.5t-121.5 42.5v43q64 -6 127 -6q132 0 213 29v-1416q0 -57 15.5 -89t49 -45t91.5 -13v-43l-31 1q-126 7 -217 7t-217 -7z" />
<glyph unicode="m" horiz-adv-x="1819" d="M58 0v43q58 0 91.5 13t49 45t15.5 89v641q0 95 -34.5 138t-121.5 43v43q64 -6 127 -6q130 0 213 28v-241q50 126 140 186.5t196 60.5q139 0 213 -77q51 -55 63 -165q51 130 141.5 186t199.5 56q139 0 213 -77q37 -41 52 -104.5t15 -164.5v-547q0 -57 15.5 -89t49 -45 t91.5 -13v-43l-30 1q-128 7 -216 7q-84 0 -201 -7l-28 -1v43q51 0 79.5 13t42 45t13.5 89v592q0 78 -9 126.5t-43 79t-104 30.5q-78 0 -141 -49t-99 -134t-36 -188v-457q0 -57 15.5 -89t48.5 -45t91 -13v-43l-31 1q-126 7 -214 7t-202 -7l-28 -1v43q51 0 80 13t42 45t13 89 v592q0 78 -9 126.5t-43 79t-103 30.5q-79 0 -142 -49.5t-99 -135t-36 -188.5v-455q0 -57 13.5 -89t42.5 -45t80 -13v-43l-28 1q-114 7 -202 7t-216 -7z" />
<glyph unicode="n" horiz-adv-x="1223" d="M58 0v43q58 0 91.5 13t49 45t15.5 89v641q0 95 -34.5 138t-121.5 43v43q64 -6 127 -6q130 0 213 28v-241q51 130 142.5 188.5t206.5 58.5q143 0 217 -77q38 -42 54.5 -103.5t16.5 -165.5v-547q0 -57 15.5 -89t49 -45t91.5 -13v-43l-30 1q-128 7 -216 7q-84 0 -201 -7 l-28 -1v43q51 0 79.5 13t42 45t13.5 89v592q0 74 -11.5 124t-48 81t-106.5 31q-84 0 -149.5 -49t-101.5 -134.5t-36 -189.5v-455q0 -57 13.5 -89t42.5 -45t80 -13v-43l-28 1q-114 7 -202 7t-216 -7z" />
<glyph unicode="o" horiz-adv-x="1122" d="M95 526q0 190 60.5 314.5t165 183.5t239.5 59t239.5 -59t165 -183.5t60.5 -314.5t-60.5 -314t-165 -182.5t-239.5 -58.5t-239.5 58.5t-165 182.5t-60.5 314zM294 526q0 -263 71.5 -388.5t194.5 -125.5t194.5 125.5t71.5 388.5q0 264 -71.5 390t-194.5 126t-194.5 -126 t-71.5 -390z" />
<glyph unicode="p" horiz-adv-x="1190" d="M44 1012v43q64 -6 127 -6q130 0 213 28v-216q46 106 132.5 164t195.5 58t195.5 -59t136 -174t49.5 -275q0 -157 -50 -294.5t-155.5 -223.5t-263.5 -86q-78 0 -141 30.5t-99 80.5v-262q0 -83 49 -115.5t148 -32.5v-43l-57 2q-149 7 -238 7q-70 0 -182 -7q-30 -2 -39 -2v43 q75 0 105 27.5t30 99.5v1032q0 95 -34.5 138t-121.5 43zM384 150q30 -61 85 -96.5t132 -35.5q293 0 293 529q0 475 -238 475q-93 0 -166.5 -66.5t-105.5 -192.5v-613z" />
<glyph unicode="q" horiz-adv-x="1153" d="M95 526q0 181 57.5 306.5t156.5 188t225 62.5q104 0 173.5 -35.5t114.5 -113.5l25 26q60 65 121 127l35 -14q-15 -50 -15 -119v-1155q0 -72 30 -99.5t105 -27.5v-43q-9 0 -39 2q-112 7 -182 7q-89 0 -238 -7l-57 -2v43q99 0 148 32.5t49 115.5v353q-41 -97 -116.5 -149.5 t-170.5 -52.5q-120 0 -215.5 62t-151 187t-55.5 306zM294 526q0 -245 72.5 -369t210.5 -124q75 0 137.5 61.5t89.5 175.5v629q-79 137 -254 137q-124 0 -190 -127.5t-66 -382.5z" />
<glyph unicode="r" horiz-adv-x="911" d="M58 0v43q58 0 91.5 13t49 45t15.5 89v641q0 95 -34.5 138t-121.5 43v43q64 -6 127 -6q130 0 213 28v-256q23 64 66.5 124t103.5 99t127 39q54 0 96.5 -21.5t66.5 -58.5t24 -81q0 -54 -32 -91.5t-85 -37.5q-45 0 -77 28.5t-32 77.5q0 67 70 111q-14 20 -43 20 q-81 0 -146 -62t-102 -153t-37 -170v-434q0 -95 54 -131.5t163 -36.5v-43q-11 0 -49 2q-204 6 -266 6q-49 0 -208 -6q-26 -2 -34 -2z" />
<glyph unicode="s" horiz-adv-x="913" d="M112 -14q8 117 8 409h47q15 -127 43 -209t86 -128t156 -46q45 0 86.5 19.5t68.5 63t27 112.5q0 56 -28.5 100.5t-74.5 80t-129 87.5q-101 64 -154.5 105t-90.5 100t-37 139q0 87 41 146.5t109.5 88.5t152.5 29q72 0 129.5 -23t93.5 -52q22 -17 36 -17q36 0 46 90h47 q-8 -100 -8 -348h-47q-22 135 -87 223t-192 88q-74 0 -121 -41.5t-47 -115.5q0 -50 26 -89t66 -69t113 -76l58 -37q94 -61 151.5 -108.5t93 -109t35.5 -140.5q0 -91 -47.5 -155.5t-127.5 -98t-175 -33.5q-91 0 -162 29q-40 20 -84 55q-8 8 -19 8q-30 0 -42 -77h-47z" />
<glyph unicode="t" horiz-adv-x="725" d="M8 1012v41h197v313q115 3 184 29v-342h303v-41h-303v-793q0 -93 33 -133.5t98 -40.5q64 0 109 51t76 168l40 -10q-50 -283 -266 -283q-69 0 -114 16.5t-80 51.5q-44 45 -62 110.5t-18 176.5v686h-197z" />
<glyph unicode="u" horiz-adv-x="1190" d="M32 1012v43q64 -6 127 -6q129 0 213 28v-805q0 -78 9 -126t43 -78.5t103 -30.5q79 0 142 49t99 134t36 188v423q0 95 -34.5 138t-121.5 43v43q64 -6 127 -6q130 0 213 28v-856q0 -95 34.5 -137.5t121.5 -42.5v-43q-64 6 -127 6q-132 0 -213 -29v242q-50 -126 -139.5 -186 t-196.5 -60q-138 0 -213 78q-37 40 -52.5 104t-15.5 164v514q0 95 -34 138t-121 43z" />
<glyph unicode="v" horiz-adv-x="1001" d="M-4 1012v43q106 -8 180 -8q157 0 266 8v-43q-51 0 -79.5 -3.5t-47 -18.5t-18.5 -48q0 -34 22 -90l252 -623l226 592q22 56 22 95q0 47 -36 70t-115 28v41q106 -6 172 -6q90 0 155 6v-41q-41 -5 -73 -37t-60 -107l-336 -880h-34l-377 907q-30 71 -59.5 93t-59.5 22z" />
<glyph unicode="w" horiz-adv-x="1577" d="M0 1012v43q86 -13 180 -13q91 0 266 13v-43q-51 0 -79 -3.5t-46 -19.5t-18 -52q0 -38 21 -97l205 -589l294 812h47l314 -829l192 587q19 60 19 93q0 49 -35.5 72t-116.5 28v41q108 -6 172 -6q91 0 156 6v-41q-43 -5 -76 -37t-57 -107l-297 -880h-35l-325 824l-292 -824 h-34l-336 907q-28 72 -58 93.5t-61 21.5z" />
<glyph unicode="x" horiz-adv-x="1063" d="M42 0v41q40 5 82 37t98 106l236 311l-285 414q-28 41 -47 61.5t-36.5 29.5t-43.5 12v43q108 -8 146 -8q69 0 241 8v-43q-33 0 -56.5 -12.5t-23.5 -33.5q0 -12 8 -24l219 -319l142 198q62 87 62 129q0 29 -28 44.5t-89 19.5v41q106 -6 172 -6q90 0 155 6v-41 q-83 -10 -180 -144l-207 -286l301 -439q36 -52 62 -73.5t65 -28.5v-43q-104 8 -145 8q-70 0 -242 -8v43q33 0 57 13t24 33q0 10 -9 24l-233 340l-150 -195q-57 -73 -57 -123q0 -84 151 -94v-41q-108 6 -233 6q-91 0 -156 -6z" />
<glyph unicode="y" horiz-adv-x="1032" d="M-8 1012v43q96 -13 201 -13q88 0 266 13v-43q-50 0 -78 -3.5t-46.5 -19t-18.5 -48.5q0 -37 26 -101l247 -612l226 593q22 60 22 94q0 48 -36.5 71t-116.5 28v41q108 -6 172 -6q91 0 156 6v-41q-41 -5 -73 -37t-60 -107l-336 -880l-70 -178q-39 -101 -88 -144 q-58 -53 -160 -53q-61 0 -100 32.5t-39 90.5q0 49 29 78.5t80 29.5q45 0 74.5 -25t29.5 -71q0 -61 -55 -92q4 -2 12 -2q113 0 174 160l73 187l-372 894q-35 71 -69.5 93t-69.5 22z" />
<glyph unicode="z" horiz-adv-x="975" d="M77 -10l592 1034h-226q-92 0 -151 -33t-91.5 -105.5t-41.5 -191.5h-47q0 271 -9 369q161 -8 381 -8q196 0 414 10l-592 -1034h225q126 0 199 78.5t86 250.5h47q0 -267 8 -368q-160 8 -380 8q-196 0 -414 -10z" />
<glyph unicode="{" horiz-adv-x="623" d="M54 594v37h11q63 4 96 48t46 147.5t13 301.5q0 183 33 285t107.5 145.5t207.5 43.5v-39q-72 -2 -104.5 -31t-45.5 -117.5t-13 -286.5q0 -174 -39.5 -280t-103 -158t-150.5 -78q87 -26 150.5 -78t103 -158.5t39.5 -279.5q0 -205 13 -295t45.5 -118t104.5 -29v-39 q-134 0 -208 42.5t-107 145.5t-33 293q0 197 -13 300.5t-46 148t-96 49.5h-11z" />
<glyph unicode="|" horiz-adv-x="455" d="M185 -399v2156h82v-2156h-82z" />
<glyph unicode="}" horiz-adv-x="623" d="M54 0zM55 -346v-39q134 0 208 42.5t107 145.5t33 293q0 197 13 300.5t46 148t96 49.5h11v37h-11q-63 4 -96 48t-46 147.5t-13 301.5q0 183 -33 285t-107.5 145.5t-207.5 43.5v-39q72 -2 104.5 -31t45.5 -117.5t13 -286.5q0 -174 39.5 -280t103 -158t150.5 -78 q-87 -26 -150.5 -78t-103 -158.5t-39.5 -279.5q0 -205 -13 -295t-45.5 -118t-104.5 -29z" />
<glyph unicode="~" horiz-adv-x="1329" d="M151 530q8 66 48.5 115.5t103.5 76t136 26.5q68 0 126.5 -20t142.5 -61q79 -38 134.5 -57.5t117.5 -19.5q134 0 184 119l35 -11q-8 -66 -49 -115t-104 -75.5t-136 -26.5q-68 0 -126.5 20t-142.5 61q-79 38 -134.5 57.5t-116.5 19.5q-135 0 -185 -119z" />
<glyph unicode="&#xa1;" horiz-adv-x="510" d="M124 952q0 35 17.5 65.5t48 48t65.5 17.5t65.5 -17.5t48 -48t17.5 -65.5t-17.5 -65t-48 -48t-65.5 -18t-65.5 18t-48 48t-17.5 65zM159 -270q0 73 28 310q23 184 35.5 326t12.5 285h36q0 -143 12.5 -285t35.5 -326q28 -237 28 -310q0 -59 -26 -87t-68 -28 q-41 0 -67.5 28.5t-26.5 86.5z" />
<glyph unicode="&#xa2;" horiz-adv-x="971" d="M68 514q0 156 54 280.5t151.5 199.5t223.5 87v369h45v-367h3q138 0 238 -65q96 -65 96 -158q0 -54 -30.5 -84.5t-77.5 -30.5q-48 0 -80.5 27.5t-32.5 75.5q0 44 24.5 73.5t61.5 39.5q-20 37 -73 61.5t-111 24.5l-18 -1v-986l20 -1q87 0 166.5 51t130.5 160l39 -14 q-22 -71 -67.5 -133.5t-118.5 -104.5t-170 -47v-342h-45v343q-122 6 -219.5 73.5t-153.5 188.5t-56 280zM267 545q0 -221 62.5 -337t167.5 -141v971q-100 -28 -165 -146.5t-65 -346.5z" />
<glyph unicode="&#xa3;" horiz-adv-x="1233" d="M71 -8q0 19 27.5 50.5t70.5 61.5t86 46q14 66 18.5 144.5t4.5 233.5v80h-158v41h158v164h-158v41h158v45q0 608 454 608q121 0 193 -55q61 -49 61 -113q0 -43 -28.5 -71.5t-67.5 -28.5q-37 0 -65.5 26t-28.5 66q0 34 17.5 59t49.5 37q-4 20 -43.5 35t-83.5 15 q-122 0 -180.5 -71t-73 -177t-14.5 -277v-98h297v-41h-297v-164h297v-41h-298q-4 -122 -35.5 -218t-96.5 -210q87 41 176 41q46 0 88.5 -10.5t110.5 -33.5q69 -24 118.5 -36t102.5 -12q69 0 104 33.5t35 83.5q0 69 -47 114.5t-127 61.5l8 33q69 -11 128.5 -44t96.5 -87 t37 -125q0 -59 -25.5 -111.5t-76 -84.5t-121.5 -32q-66 0 -123.5 25t-141.5 75q-99 59 -149 76q-43 17 -100 17q-58 0 -113 -21q-47 -81 -103 -126.5t-110 -45.5q-16 0 -24 4t-8 17z" />
<glyph unicode="&#xa4;" horiz-adv-x="1096" d="M157 283l88 88q-86 105 -86 243q0 139 88 246l-90 90l57 58l90 -90q107 86 244 86q136 0 244 -89l92 93l57 -58l-92 -92q86 -109 86 -244q0 -138 -86 -243l90 -88l-57 -60l-90 90q-110 -86 -244 -86q-139 0 -244 84l-88 -88zM243 614q0 -84 41.5 -155.5t111.5 -113.5 t152 -42t151.5 42t110.5 113.5t41 155.5q0 83 -41 155t-111 115.5t-151 43.5q-82 0 -152.5 -43t-111.5 -115t-41 -156z" />
<glyph unicode="&#xa5;" horiz-adv-x="1325" d="M54 1407v43q80 -6 180 -6q199 0 287 6v-43q-144 0 -144 -79q0 -30 21 -71l340 -651h2l260 518q56 113 56 176q0 58 -45 82.5t-136 26.5v41q117 -6 236 -6q92 0 153 6v-41q-41 -9 -80 -51.5t-84 -130.5l-313 -621h279v-41h-287v-164h287v-41h-287v-143q0 -77 12.5 -112 t46 -48t107.5 -16v-41q-96 6 -260 6q-176 0 -263 -6v41q74 3 107.5 16t46 48t12.5 112v143h-286v41h286v125l-21 39h-265v41h243l-372 686q-38 69 -65.5 92t-53.5 23z" />
<glyph unicode="&#xa6;" horiz-adv-x="459" d="M187 -399v1067h82v-1067h-82zM187 786v971h82v-971h-82z" />
<glyph unicode="&#xa7;" horiz-adv-x="1040" d="M83 639q0 224 235 354q-71 65 -108 133.5t-37 153.5q0 94 44.5 167.5t126.5 114t190 40.5q92 0 182 -35q73 -31 115 -81t42 -104q0 -47 -29 -78.5t-79 -31.5q-47 0 -80 30t-33 78q0 38 21.5 68t66.5 41q-19 39 -79 56.5t-119 17.5q-80 0 -130.5 -30t-73 -76t-22.5 -97 q0 -70 42 -131t102 -109.5t160 -117.5q12 -9 36 -25q109 -75 172 -131.5t96 -121t33 -146.5q0 -219 -240 -350q74 -66 112 -135.5t38 -155.5q0 -95 -44.5 -168t-126 -113.5t-189.5 -40.5q-98 0 -182 35q-74 31 -116 80.5t-42 103.5q0 47 29 79t79 32q48 0 80.5 -30.5 t32.5 -78.5q0 -38 -21.5 -67.5t-66.5 -40.5q17 -39 78 -56.5t123 -17.5q78 0 128 30t72.5 76t22.5 97q0 69 -42 130.5t-101.5 109.5t-161.5 119l-35 24q-109 75 -172 131.5t-96 121t-33 146.5zM194 741q0 -64 38.5 -121.5t98 -106t157.5 -116.5q154 -106 207 -150 q77 43 114.5 102t37.5 126q0 64 -38.5 121.5t-99 107t-157.5 115.5q-154 106 -208 151q-75 -42 -112.5 -102t-37.5 -127z" />
<glyph unicode="&#xa8;" horiz-adv-x="799" d="M62 1403q0 31 16 58.5t43.5 44t59.5 16.5q31 0 58.5 -16.5t44 -44t16.5 -58.5q0 -32 -16.5 -59.5t-43.5 -43.5t-59 -16q-49 0 -84 35t-35 84zM497 1403q0 31 16 58.5t43 44t59 16.5q31 0 58.5 -16.5t44 -44t16.5 -58.5q0 -32 -16.5 -59.5t-43.5 -43.5t-59 -16 q-49 0 -83.5 35t-34.5 84z" />
<glyph unicode="&#xa9;" horiz-adv-x="1831" d="M99 786q0 222 109.5 409.5t297 297t408.5 109.5q222 0 409.5 -109.5t297 -297t109.5 -409.5q0 -221 -109.5 -408.5t-297 -297t-409.5 -109.5q-221 0 -408.5 109.5t-297 297t-109.5 408.5zM181 786q0 -203 98.5 -375t267 -273t367.5 -101q200 0 368.5 101t267 273 t98.5 375q0 204 -98.5 376t-267 273t-368.5 101q-199 0 -367.5 -101t-267 -273t-98.5 -376zM470 774q0 166 60.5 295.5t169.5 201.5t249 72q70 0 135 -18t111 -53q86 -60 86 -152q0 -53 -30.5 -83.5t-77.5 -30.5q-48 0 -80.5 30t-32.5 80q0 42 23 69t63 36q-20 37 -73 61.5 t-111 24.5q-101 0 -177 -80q-116 -128 -116 -428q0 -169 39.5 -276t105 -155.5t148.5 -48.5q89 0 168.5 51t130.5 160l38 -14q-22 -73 -70 -137.5t-125 -106t-179 -41.5q-129 0 -232.5 66t-163 189t-59.5 288z" />
<glyph unicode="&#xaa;" horiz-adv-x="948" d="M116 897q0 56 32.5 95t87 66.5t146.5 61.5q80 30 122 55t42 60v37q0 89 -35 128.5t-104 39.5q-85 0 -152 -43q30 -9 50 -34.5t20 -62.5q0 -39 -27 -64.5t-63 -25.5q-45 0 -72 25.5t-27 67.5q0 81 99 129q99 47 225 47q132 0 191 -61.5t59 -198.5v-334q0 -43 11.5 -59.5 t39.5 -16.5q49 0 84 35l22 -31q-80 -76 -184 -76q-73 0 -103.5 24.5t-33.5 72.5q-100 -97 -240 -97q-49 0 -92 17.5t-70.5 53.5t-27.5 89zM284 934q0 -56 31 -90.5t81 -34.5q77 0 150 65v297q-8 -17 -31.5 -32.5t-83.5 -42.5q-77 -35 -112 -72t-35 -90z" />
<glyph unicode="&#xab;" horiz-adv-x="1028" d="M65 526v2q158 88 270.5 223.5t200.5 331.5l34 -14q-71 -191 -155 -313.5t-197 -220.5q110 -96 194.5 -225.5t157.5 -323.5l-34 -15q-88 196 -200.5 332t-270.5 223zM423 526v2q158 88 270.5 223.5t200.5 331.5l35 -14q-72 -191 -155.5 -313.5t-196.5 -220.5 q110 -96 194.5 -225t157.5 -324l-35 -15q-88 196 -200.5 332t-270.5 223z" />
<glyph unicode="&#xac;" horiz-adv-x="1343" d="M167 696v62h1026v-420h-74v358h-952z" />
<glyph unicode="&#xad;" horiz-adv-x="1022" />
<glyph unicode="&#xae;" horiz-adv-x="1389" d="M122 1030q0 155 77 286.5t208 208.5t286 77t286.5 -77t208.5 -208.5t77 -286.5t-77 -286t-208.5 -208t-286.5 -77t-286 77t-208 208t-77 286zM208 1030q0 -136 65 -252.5t176.5 -185t243.5 -68.5q133 0 244.5 68.5t176.5 185t65 252.5q0 137 -65 253t-176.5 184.5 t-244.5 68.5t-244 -68.5t-176 -184.5t-65 -253zM437 721v31q21 2 30.5 7.5t13 20.5t3.5 47v449q0 33 -3.5 48.5t-13 21.5t-30.5 8v30q25 -2 99 -2l126 1q21 1 50 1q115 0 176 -42t61 -119q0 -139 -198 -174q81 -9 116 -37t45 -82l25 -117q2 -8 6 -28.5t11.5 -30t19.5 -9.5 q15 0 24 17l21 -14q-12 -24 -33.5 -33.5t-56.5 -9.5q-52 0 -77 19.5t-36 63.5l-35 152q-9 40 -23 58.5t-48.5 26t-108.5 9.5v-207q0 -32 3.5 -47t13 -20.5t30.5 -7.5v-31q-27 0 -43 1l-61 1l-68 -1q-15 -1 -39 -1zM601 1067h49q101 0 136.5 35t35.5 100q0 79 -32.5 115.5 t-110.5 36.5q-34 0 -50 -5.5t-22 -19.5t-6 -43v-219z" />
<glyph unicode="&#xaf;" horiz-adv-x="741" d="M50 1407v51h639v-51h-639z" />
<glyph unicode="&#xb0;" horiz-adv-x="682" d="M91 1434q0 73 34 129t91 86t123 30q67 0 124.5 -30t91.5 -86t34 -129q0 -75 -34 -131t-91.5 -86.5t-124.5 -30.5q-66 0 -123 30.5t-91 87t-34 130.5zM142 1432q0 -68 29 -116t74 -71.5t94 -23.5t94.5 23.5t75 71.5t29.5 116q0 66 -29.5 114.5t-75.5 73.5t-94 25 t-93.5 -25t-74.5 -73.5t-29 -114.5z" />
<glyph unicode="&#xb1;" horiz-adv-x="1313" d="M128 696v62h477v483h74v-483h475v-62h-475v-481h-74v481h-477zM129 0zM149 0v62h1026v-62h-1026z" />
<glyph unicode="&#xb2;" horiz-adv-x="692" d="M71 897v41q26 23 81 63q86 65 141.5 114.5t96.5 114t41 136.5q0 111 -133 111q-124 0 -195 -111l-30 16q38 71 109.5 117.5t172.5 46.5q93 0 149 -39t56 -114q0 -54 -29 -102t-70.5 -85t-110.5 -90q-90 -70 -122 -104h271q31 0 49 7.5t27 21.5t20 40l35 -6 q-28 -104 -31 -184q-25 6 -78 6h-450z" />
<glyph unicode="&#xb3;" horiz-adv-x="664" d="M56 1384q38 71 110 117.5t177 46.5q94 0 150.5 -39t56.5 -110q0 -68 -52.5 -118.5t-138.5 -74.5q64 -1 118.5 -22.5t87 -63t32.5 -98.5q0 -91 -79 -161.5t-202.5 -109t-250.5 -38.5v35q105 3 199 40.5t151 99t57 134.5q0 70 -40.5 114.5t-108.5 47.5q7 3 -19 -10 q-36 -19 -55 -19q-33 0 -33 25q0 19 23 24.5t67 3.5q62 26 88.5 68t26.5 84q0 54 -38 86.5t-101 32.5q-61 0 -111.5 -28t-83.5 -83z" />
<glyph unicode="&#xb4;" horiz-adv-x="457" d="M40 1245q66 103 141 249q55 105 82 140q35 46 78 46q25 0 45 -15q28 -23 28 -57q0 -33 -28 -70q-29 -37 -117 -114q-130 -116 -207 -197z" />
<glyph unicode="&#xb6;" horiz-adv-x="1321" d="M71 737q0 210 87.5 372t253 252.5t392.5 90.5q60 0 166 -4q147 -3 143 -3q72 0 123 5v-39q-65 -3 -99 -18.5t-46.5 -44t-12.5 -76.5v-1426q0 -77 12.5 -112t46 -48t107.5 -16v-41q-94 6 -260 6q-204 0 -303 -6v41q87 3 130.5 21.5t60 58.5t16.5 117v106 q-429 0 -623 205.5t-194 558.5zM253 719q0 -4 82 -11t213.5 -12.5t277.5 -5.5q2 -153 14.5 -288t27.5 -219.5t22 -84.5v1245q-7 0 -22 -87t-27.5 -223t-14.5 -283q-144 0 -275 -6t-214.5 -14t-83.5 -11z" />
<glyph unicode="&#xb7;" horiz-adv-x="541" d="M138 548q0 35 17.5 65.5t48 48t65.5 17.5t65.5 -17.5t48 -48t17.5 -65.5t-17.5 -65t-48 -48t-65.5 -18t-65.5 18t-48 48t-17.5 65zM139 417z" />
<glyph unicode="&#xb8;" horiz-adv-x="467" d="M19 -362l9 36q42 -6 77 -6q74 0 129.5 21.5t55.5 70.5q0 58 -86 58q-59 0 -101 -15l70 209h55l-53 -159q61 14 121 14q58 0 91.5 -25.5t33.5 -70.5q0 -54 -35.5 -89t-88.5 -51t-108 -16q-105 0 -170 23z" />
<glyph unicode="&#xb9;" horiz-adv-x="539" d="M69 1436v43q105 2 172.5 16t122.5 47v-504q0 -40 13.5 -61.5t42.5 -30t81 -8.5v-43q-78 4 -199 4q-133 0 -219 -4v43q76 0 114 21.5t38 78.5v265q0 59 -14.5 87t-48 37t-103.5 9z" />
<glyph unicode="&#xba;" horiz-adv-x="930" d="M101 1108q0 117 51.5 201t135 127t176.5 43t176 -43t134.5 -127t51.5 -201t-51.5 -201t-134.5 -127t-176 -43t-176.5 43t-135 127t-51.5 201zM271 1108q0 -114 25.5 -189t69 -110t98.5 -35q54 0 97.5 35t69 110t25.5 189t-25.5 189t-69 110t-97.5 35q-55 0 -98.5 -35 t-69 -110t-25.5 -189z" />
<glyph unicode="&#xbb;" horiz-adv-x="1026" d="M97 -16q72 191 155.5 313t197.5 221q-110 96 -194.5 225t-158.5 324l35 14q88 -196 200.5 -331.5t270.5 -223.5v-2q-158 -88 -270.5 -223.5t-200.5 -331.5zM456 -16q71 190 154.5 312.5t197.5 221.5q-110 96 -194.5 225.5t-157.5 323.5l35 14q87 -196 199.5 -331.5 t271.5 -223.5v-2q-159 -88 -271.5 -223.5t-199.5 -331.5z" />
<glyph unicode="&#xbc;" horiz-adv-x="1419" d="M102 1436v43q105 2 172.5 16t122.5 47v-504q0 -40 13.5 -61.5t42.5 -30t81 -8.5v-43q-78 4 -199 4q-133 0 -219 -4v43q76 0 114 21.5t38 78.5v265q0 59 -14.5 87t-48 37t-103.5 9zM103 0zM131 -86l1198 1774l39 -27l-1198 -1774zM612 37v43l469 541h43v-500h16 q32 0 49.5 7.5t26.5 21t20 40.5l35 -6q-25 -86 -29 -153q-24 6 -77 6h-41v-240h-115v240h-397zM693 121h316v367z" />
<glyph unicode="&#xbd;" horiz-adv-x="1434" d="M98 0zM98 -86l1198 1774l39 -27l-1198 -1774zM118 1436v43q105 2 172.5 16t122.5 47v-504q0 -40 13.5 -61.5t42.5 -30t81 -8.5v-43q-78 4 -199 4q-133 0 -219 -4v43q76 0 114 21.5t38 78.5v265q0 59 -14.5 87t-48 37t-103.5 9zM794 2v41q26 23 81 63q86 65 141.5 114.5 t96.5 114t41 136.5q0 111 -133 111q-124 0 -195 -111l-30 16q38 71 109.5 117.5t172.5 46.5q93 0 149 -39t56 -114q0 -54 -29 -102t-70.5 -85t-110.5 -90q-90 -70 -122 -104h271q31 0 49 7.5t27 21.5t20 40l35 -6q-28 -104 -31 -184q-25 6 -78 6h-450z" />
<glyph unicode="&#xbe;" horiz-adv-x="1524" d="M103 1384q38 71 110 117.5t177 46.5q94 0 150.5 -39t56.5 -110q0 -68 -52.5 -118.5t-138.5 -74.5q64 -1 118.5 -22.5t87 -63t32.5 -98.5q0 -91 -79 -161.5t-202.5 -109t-250.5 -38.5v35q105 3 199 40.5t151 99t57 134.5q0 70 -40.5 114.5t-108.5 47.5q7 3 -19 -10 q-36 -19 -55 -19q-33 0 -33 25q0 19 23 24.5t67 3.5q62 26 88.5 68t26.5 84q0 54 -38 86.5t-101 32.5q-61 0 -111.5 -28t-83.5 -83zM104 0zM227 -86l1198 1774l39 -27l-1198 -1774zM708 37v43l469 541h43v-500h16q32 0 49.5 7.5t26.5 21t20 40.5l35 -6q-25 -86 -29 -153 q-24 6 -77 6h-41v-240h-115v240h-397zM789 121h316v367z" />
<glyph unicode="&#xbf;" horiz-adv-x="928" d="M62 -37q0 161 124.5 273t336.5 161v258h41v-276q-130 -45 -200 -102.5t-94.5 -123.5t-24.5 -151q0 -176 76 -261t210 -85q143 0 201 53q-40 8 -63 34.5t-23 70.5q0 50 32.5 80t80.5 30q47 0 77.5 -30.5t30.5 -77.5q0 -85 -96 -142q-101 -59 -278 -59q-128 0 -225.5 42 t-151.5 120.5t-54 185.5zM411 954q0 35 17.5 65.5t48 48t65.5 17.5t65.5 -17.5t48 -48t17.5 -65.5t-17.5 -65t-48 -48t-65.5 -18t-65.5 18t-48 48t-17.5 65z" />
<glyph unicode="&#xc0;" d="M-14 0v41q102 23 161 178l482 1241h33l499 -1288q50 -127 142 -131v-41q-84 6 -220 6q-175 0 -262 -6v41q78 3 111.5 19t33.5 57q0 35 -24 96l-126 336h-494l-84 -217q-41 -104 -41 -168q0 -65 43.5 -93t134.5 -30v-41q-117 6 -236 6q-92 0 -153 -6zM0 0zM289 1844 q0 19 11 38q23 34 63 34q31 0 62 -20q41 -26 126 -104q127 -115 218 -184l-14 -27q-106 53 -266 117q-101 38 -146 65q-54 36 -54 81zM337 590h464l-229 611z" />
<glyph unicode="&#xc1;" d="M-14 0v41q102 23 161 178l482 1241h33l499 -1288q50 -127 142 -131v-41q-84 6 -220 6q-175 0 -262 -6v41q78 3 111.5 19t33.5 57q0 35 -24 96l-126 336h-494l-84 -217q-41 -104 -41 -168q0 -65 43.5 -93t134.5 -30v-41q-117 6 -236 6q-92 0 -153 -6zM0 0zM337 590h464 l-229 611zM507 1608q91 69 218 184q85 78 126 104q31 20 62 20q40 0 63 -34q11 -19 11 -38q0 -45 -54 -81q-45 -27 -146 -65q-160 -64 -266 -117z" />
<glyph unicode="&#xc2;" d="M-14 0v41q102 23 161 178l482 1241h33l499 -1288q50 -127 142 -131v-41q-84 6 -220 6q-175 0 -262 -6v41q78 3 111.5 19t33.5 57q0 35 -24 96l-126 336h-494l-84 -217q-41 -104 -41 -168q0 -65 43.5 -93t134.5 -30v-41q-117 6 -236 6q-92 0 -153 -6zM0 0zM231 1606 q131 45 232.5 117.5t150.5 152.5h37q48 -80 149.5 -152.5t233.5 -117.5l-11 -29q-124 26 -243 65.5t-189 77.5q-58 -38 -154.5 -77.5t-195.5 -65.5zM337 590h464l-229 611z" />
<glyph unicode="&#xc3;" d="M-14 0v41q102 23 161 178l482 1241h33l499 -1288q50 -127 142 -131v-41q-84 6 -220 6q-175 0 -262 -6v41q78 3 111.5 19t33.5 57q0 35 -24 96l-126 336h-494l-84 -217q-41 -104 -41 -168q0 -65 43.5 -93t134.5 -30v-41q-117 6 -236 6q-92 0 -153 -6zM0 0zM239 1630 q6 66 38 115t82 75.5t107 26.5q51 0 96 -20.5t110 -60.5q63 -39 104 -57.5t88 -18.5q95 0 127 114l30 -6q-6 -66 -38 -115t-81.5 -75.5t-107.5 -26.5q-51 0 -96.5 20.5t-108.5 60.5q-61 39 -103.5 58t-88.5 19q-96 0 -127 -115zM337 590h464l-229 611z" />
<glyph unicode="&#xc4;" d="M-14 0v41q102 23 161 178l482 1241h33l499 -1288q50 -127 142 -131v-41q-84 6 -220 6q-175 0 -262 -6v41q78 3 111.5 19t33.5 57q0 35 -24 96l-126 336h-494l-84 -217q-41 -104 -41 -168q0 -65 43.5 -93t134.5 -30v-41q-117 6 -236 6q-92 0 -153 -6zM0 0zM296 1700 q0 31 16 58.5t43.5 44t59.5 16.5q31 0 58.5 -16.5t44 -44t16.5 -58.5q0 -32 -16.5 -59.5t-44 -43.5t-58.5 -16q-49 0 -84 35t-35 84zM337 590h464l-229 611zM730 1700q0 31 16 58.5t43.5 44t59.5 16.5q31 0 58.5 -16.5t44 -44t16.5 -58.5q0 -32 -16.5 -59.5t-43.5 -43.5 t-59 -16q-49 0 -84 35t-35 84z" />
<glyph unicode="&#xc5;" d="M-14 0v41q102 23 161 178l482 1241h33l499 -1288q50 -127 142 -131v-41q-84 6 -220 6q-175 0 -262 -6v41q78 3 111.5 19t33.5 57q0 35 -24 96l-126 336h-494l-84 -217q-41 -104 -41 -168q0 -65 43.5 -93t134.5 -30v-41q-117 6 -236 6q-92 0 -153 -6zM0 0zM337 590h464 l-229 611zM436 1708q0 56 27 98t72 65t97 23q54 0 99.5 -23t72.5 -65t27 -98q0 -57 -27 -99.5t-72.5 -65.5t-99.5 -23q-53 0 -97.5 23t-71.5 65.5t-27 99.5zM493 1706q0 -46 20.5 -78t52.5 -48.5t66 -16.5q36 0 68.5 16.5t53 48.5t20.5 78q0 45 -20.5 78t-53.5 50t-68 17 q-34 0 -66 -17t-52.5 -50t-20.5 -78z" />
<glyph unicode="&#xc6;" horiz-adv-x="1749" d="M-20 0v41q33 2 66 31.5t75 99.5l718 1184q-15 29 -48 39.5t-101 13.5v41q61 -2 203 -4l82 135h49l-82 -136q83 -1 154.5 -1h126.5q272 0 387 6q-15 -131 -15 -242q0 -84 7 -127h-48q-11 132 -28.5 197.5t-59 95t-125.5 29.5h-129q-74 0 -107 -12t-45.5 -46.5 t-12.5 -111.5v-483h149q57 0 87 28.5t41 67.5t17 96l2 18t3 19h47q-8 -104 -8 -171l1 -79q0 -74 13 -250h-47l-3 24q-7 69 -18 109.5t-42.5 68.5t-92.5 28h-149v-492q0 -77 12.5 -111.5t45.5 -46.5t107 -12h150q99 0 144 33t60.5 102t28.5 228h47q-6 -55 -6 -148 q0 -120 15 -262q-127 6 -428 6q-322 0 -492 -6v41q57 3 82 16t34 48t9 112v492h-358l-299 -496q-38 -64 -38 -100t35 -52.5t107 -19.5v-41q-62 6 -186 6q-86 0 -137 -6zM523 750h333v483q0 38 -3 65z" />
<glyph unicode="&#xc7;" horiz-adv-x="1409" d="M108 713q0 226 83 400t231 270t337 96q122 0 208.5 -35t168.5 -98q22 -18 40 -18q42 0 52 122h47q-8 -133 -8 -471h-47q-15 92 -27.5 143t-29.5 86.5t-46 73.5q-62 80 -157 120t-205 40q-133 0 -233 -88t-155 -251t-55 -382q0 -223 60 -383t165 -243t238 -83 q102 0 199 39t151 117q42 56 60 121.5t35 202.5h47q0 -353 8 -492h-47q-5 64 -16.5 92.5t-33.5 28.5q-16 0 -42 -17q-59 -41 -108.5 -68.5t-112 -45t-140.5 -19.5l-41 -118q61 14 121 14q58 0 91.5 -25.5t33.5 -70.5q0 -54 -35.5 -89t-88.5 -51t-107 -16q-105 0 -170 23 l8 36q42 -6 78 -6q74 0 129 21.5t55 70.5q0 58 -86 58q-58 0 -100 -15l56 169q-184 9 -322 99t-213.5 254t-75.5 388z" />
<glyph unicode="&#xc8;" horiz-adv-x="1247" d="M85 0v41q74 3 107.5 16t46 48t12.5 112v1016q0 77 -12.5 112t-46 48t-107.5 16v41q201 -6 594 -6q301 0 428 6q-14 -134 -14 -242q0 -80 6 -127h-47q-15 133 -37.5 198t-76 94.5t-161.5 29.5h-170q-74 0 -107.5 -12t-46 -46.5t-12.5 -111.5v-483h136q72 0 110.5 34t52 80 t22.5 116q1 18 5 40h47q-7 -101 -7 -193l1 -98q0 -104 12 -291h-47l-3 29q-9 81 -23 129t-53.5 80.5t-116.5 32.5h-136v-492q0 -77 12.5 -111.5t46 -46.5t107.5 -12h150q128 0 194.5 34t96 109t45.5 220h47q-6 -55 -6 -148q0 -116 14 -262q-139 6 -469 6q-393 0 -594 -6z M86 0zM283 1844q0 19 11 38q23 34 63 34q31 0 62 -20q41 -26 126 -104q127 -115 218 -184l-14 -27q-106 53 -266 117q-101 38 -146 65q-54 36 -54 81z" />
<glyph unicode="&#xc9;" horiz-adv-x="1247" d="M85 0v41q74 3 107.5 16t46 48t12.5 112v1016q0 77 -12.5 112t-46 48t-107.5 16v41q201 -6 594 -6q301 0 428 6q-14 -134 -14 -242q0 -80 6 -127h-47q-15 133 -37.5 198t-76 94.5t-161.5 29.5h-170q-74 0 -107.5 -12t-46 -46.5t-12.5 -111.5v-483h136q72 0 110.5 34t52 80 t22.5 116q1 18 5 40h47q-7 -101 -7 -193l1 -98q0 -104 12 -291h-47l-3 29q-9 81 -23 129t-53.5 80.5t-116.5 32.5h-136v-492q0 -77 12.5 -111.5t46 -46.5t107.5 -12h150q128 0 194.5 34t96 109t45.5 220h47q-6 -55 -6 -148q0 -116 14 -262q-139 6 -469 6q-393 0 -594 -6z M86 0zM501 1608q91 69 218 184q85 78 126 104q31 20 62 20q40 0 63 -34q11 -19 11 -38q0 -45 -54 -81q-45 -27 -146 -65q-160 -64 -266 -117z" />
<glyph unicode="&#xca;" horiz-adv-x="1247" d="M85 0v41q74 3 107.5 16t46 48t12.5 112v1016q0 77 -12.5 112t-46 48t-107.5 16v41q201 -6 594 -6q301 0 428 6q-14 -134 -14 -242q0 -80 6 -127h-47q-15 133 -37.5 198t-76 94.5t-161.5 29.5h-170q-74 0 -107.5 -12t-46 -46.5t-12.5 -111.5v-483h136q72 0 110.5 34t52 80 t22.5 116q1 18 5 40h47q-7 -101 -7 -193l1 -98q0 -104 12 -291h-47l-3 29q-9 81 -23 129t-53.5 80.5t-116.5 32.5h-136v-492q0 -77 12.5 -111.5t46 -46.5t107.5 -12h150q128 0 194.5 34t96 109t45.5 220h47q-6 -55 -6 -148q0 -116 14 -262q-139 6 -469 6q-393 0 -594 -6z M86 0zM225 1606q131 45 232.5 117.5t150.5 152.5h37q48 -80 149.5 -152.5t233.5 -117.5l-11 -29q-124 26 -243 65.5t-189 77.5q-58 -38 -154.5 -77.5t-195.5 -65.5z" />
<glyph unicode="&#xcb;" horiz-adv-x="1247" d="M85 0v41q74 3 107.5 16t46 48t12.5 112v1016q0 77 -12.5 112t-46 48t-107.5 16v41q201 -6 594 -6q301 0 428 6q-14 -134 -14 -242q0 -80 6 -127h-47q-15 133 -37.5 198t-76 94.5t-161.5 29.5h-170q-74 0 -107.5 -12t-46 -46.5t-12.5 -111.5v-483h136q72 0 110.5 34t52 80 t22.5 116q1 18 5 40h47q-7 -101 -7 -193l1 -98q0 -104 12 -291h-47l-3 29q-9 81 -23 129t-53.5 80.5t-116.5 32.5h-136v-492q0 -77 12.5 -111.5t46 -46.5t107.5 -12h150q128 0 194.5 34t96 109t45.5 220h47q-6 -55 -6 -148q0 -116 14 -262q-139 6 -469 6q-393 0 -594 -6z M86 0zM290 1700q0 31 16 58.5t43.5 44t59.5 16.5q31 0 58.5 -16.5t44 -44t16.5 -58.5q0 -32 -16.5 -59.5t-44 -43.5t-58.5 -16q-49 0 -84 35t-35 84zM724 1700q0 31 16 58.5t43.5 44t59.5 16.5q31 0 58.5 -16.5t44 -44t16.5 -58.5q0 -32 -16.5 -59.5t-43.5 -43.5t-59 -16 q-49 0 -84 35t-35 84z" />
<glyph unicode="&#xcc;" horiz-adv-x="694" d="M4 1844q0 19 11 38q23 34 63 34q31 0 62 -20q41 -26 126 -104q127 -115 218 -184l-14 -27q-106 53 -266 117q-101 38 -146 65q-54 36 -54 81zM5 0zM85 0v41q74 3 107.5 16t46 48t12.5 112v1016q0 77 -12.5 112t-46 48t-107.5 16v41q85 -6 262 -6q166 0 260 6v-41 q-74 -3 -107.5 -16t-46 -48t-12.5 -112v-1016q0 -77 12.5 -112t46 -48t107.5 -16v-41q-94 6 -260 6q-176 0 -262 -6z" />
<glyph unicode="&#xcd;" horiz-adv-x="694" d="M85 0v41q74 3 107.5 16t46 48t12.5 112v1016q0 77 -12.5 112t-46 48t-107.5 16v41q85 -6 262 -6q166 0 260 6v-41q-74 -3 -107.5 -16t-46 -48t-12.5 -112v-1016q0 -77 12.5 -112t46 -48t107.5 -16v-41q-94 6 -260 6q-176 0 -262 -6zM86 0zM222 1608q91 69 218 184 q85 78 126 104q31 20 62 20q40 0 63 -34q11 -19 11 -38q0 -45 -54 -81q-45 -27 -146 -65q-160 -64 -266 -117z" />
<glyph unicode="&#xce;" horiz-adv-x="694" d="M-54 1606q131 45 232.5 117.5t150.5 152.5h37q48 -80 149.5 -152.5t233.5 -117.5l-11 -29q-124 26 -243 65.5t-189 77.5q-58 -38 -154.5 -77.5t-195.5 -65.5zM0 0zM85 0v41q74 3 107.5 16t46 48t12.5 112v1016q0 77 -12.5 112t-46 48t-107.5 16v41q85 -6 262 -6 q166 0 260 6v-41q-74 -3 -107.5 -16t-46 -48t-12.5 -112v-1016q0 -77 12.5 -112t46 -48t107.5 -16v-41q-94 6 -260 6q-176 0 -262 -6z" />
<glyph unicode="&#xcf;" horiz-adv-x="694" d="M11 1700q0 31 16 58.5t43.5 44t59.5 16.5q31 0 58.5 -16.5t44 -44t16.5 -58.5q0 -32 -16.5 -59.5t-44 -43.5t-58.5 -16q-49 0 -84 35t-35 84zM12 0zM85 0v41q74 3 107.5 16t46 48t12.5 112v1016q0 77 -12.5 112t-46 48t-107.5 16v41q85 -6 262 -6q166 0 260 6v-41 q-74 -3 -107.5 -16t-46 -48t-12.5 -112v-1016q0 -77 12.5 -112t46 -48t107.5 -16v-41q-94 6 -260 6q-176 0 -262 -6zM445 1700q0 31 16 58.5t43.5 44t59.5 16.5q31 0 58.5 -16.5t44 -44t16.5 -58.5q0 -32 -16.5 -59.5t-43.5 -43.5t-59 -16q-49 0 -84 35t-35 84z" />
<glyph unicode="&#xd0;" horiz-adv-x="1483" d="M87 0v41q74 3 107.5 16t46 48t12.5 112v492h-166v41h166v483q0 77 -12.5 112t-46 48t-107.5 16v41q110 -7 200 -7l50 1l84 2q160 4 225 4q362 0 542.5 -181t180.5 -528q0 -223 -87.5 -390.5t-254.5 -259t-399 -91.5q-48 0 -120 3q-171 3 -167 3q-168 0 -254 -6zM443 213 q0 -74 12 -110.5t44.5 -51t97.5 -14.5q218 0 342 79t174.5 230.5t50.5 386.5q0 236 -55 384.5t-179.5 222t-334.5 73.5q-64 0 -96 -14.5t-44 -51.5t-12 -110v-487h285v-41h-285v-496z" />
<glyph unicode="&#xd1;" horiz-adv-x="1446" d="M85 0v41q71 3 105.5 20.5t47.5 57.5t13 119v995q0 77 -12.5 112t-46 48t-107.5 16v41q67 -6 190 -6q92 0 160 6l723 -1114v876q0 79 -13.5 119t-52.5 57.5t-120 20.5v41q73 -6 209 -6q122 0 190 6v-41q-71 -3 -105.5 -20.5t-47.5 -57.5t-13 -119v-1222h-47l-860 1329 v-1081q0 -79 14 -119t52.5 -57.5t119.5 -20.5v-41q-73 6 -209 6q-122 0 -190 -6zM86 0zM372 1630q6 66 38 115t82 75.5t107 26.5q51 0 96 -20.5t110 -60.5q63 -39 104 -57.5t88 -18.5q95 0 127 114l30 -6q-6 -66 -38 -115t-81.5 -75.5t-107.5 -26.5q-51 0 -96.5 20.5 t-108.5 60.5q-61 39 -103.5 58t-88.5 19q-96 0 -127 -115z" />
<glyph unicode="&#xd2;" horiz-adv-x="1518" d="M108 713q0 226 83 400t231 270t337 96q195 0 341.5 -88t227 -255.5t80.5 -398.5q0 -226 -83 -400t-231 -270t-337 -96q-195 0 -341.5 88t-227 255.5t-80.5 398.5zM109 0zM312 721q0 -213 60 -375t163.5 -250t229.5 -88q131 0 230.5 91.5t153.5 255t54 374.5 q0 213 -60 375t-163 250t-229 88q-131 0 -231 -91.5t-154 -255t-54 -374.5zM412 1844q0 19 11 38q23 34 63 34q31 0 62 -20q41 -26 126 -104q127 -115 218 -184l-14 -27q-106 53 -266 117q-101 38 -146 65q-54 36 -54 81z" />
<glyph unicode="&#xd3;" horiz-adv-x="1518" d="M108 713q0 226 83 400t231 270t337 96q195 0 341.5 -88t227 -255.5t80.5 -398.5q0 -226 -83 -400t-231 -270t-337 -96q-195 0 -341.5 88t-227 255.5t-80.5 398.5zM109 0zM312 721q0 -213 60 -375t163.5 -250t229.5 -88q131 0 230.5 91.5t153.5 255t54 374.5 q0 213 -60 375t-163 250t-229 88q-131 0 -231 -91.5t-154 -255t-54 -374.5zM630 1608q91 69 218 184q85 78 126 104q31 20 62 20q40 0 63 -34q11 -19 11 -38q0 -45 -54 -81q-45 -27 -146 -65q-160 -64 -266 -117z" />
<glyph unicode="&#xd4;" horiz-adv-x="1518" d="M108 713q0 226 83 400t231 270t337 96q195 0 341.5 -88t227 -255.5t80.5 -398.5q0 -226 -83 -400t-231 -270t-337 -96q-195 0 -341.5 88t-227 255.5t-80.5 398.5zM109 0zM312 721q0 -213 60 -375t163.5 -250t229.5 -88q131 0 230.5 91.5t153.5 255t54 374.5 q0 213 -60 375t-163 250t-229 88q-131 0 -231 -91.5t-154 -255t-54 -374.5zM354 1606q131 45 232.5 117.5t150.5 152.5h37q48 -80 149.5 -152.5t233.5 -117.5l-11 -29q-124 26 -243 65.5t-189 77.5q-58 -38 -154.5 -77.5t-195.5 -65.5z" />
<glyph unicode="&#xd5;" horiz-adv-x="1518" d="M108 713q0 226 83 400t231 270t337 96q195 0 341.5 -88t227 -255.5t80.5 -398.5q0 -226 -83 -400t-231 -270t-337 -96q-195 0 -341.5 88t-227 255.5t-80.5 398.5zM109 0zM312 721q0 -213 60 -375t163.5 -250t229.5 -88q131 0 230.5 91.5t153.5 255t54 374.5 q0 213 -60 375t-163 250t-229 88q-131 0 -231 -91.5t-154 -255t-54 -374.5zM362 1630q6 66 38 115t82 75.5t107 26.5q51 0 96 -20.5t110 -60.5q63 -39 104 -57.5t88 -18.5q95 0 127 114l30 -6q-6 -66 -38 -115t-81.5 -75.5t-107.5 -26.5q-51 0 -96.5 20.5t-108.5 60.5 q-61 39 -103.5 58t-88.5 19q-96 0 -127 -115z" />
<glyph unicode="&#xd6;" horiz-adv-x="1518" d="M108 713q0 226 83 400t231 270t337 96q195 0 341.5 -88t227 -255.5t80.5 -398.5q0 -226 -83 -400t-231 -270t-337 -96q-195 0 -341.5 88t-227 255.5t-80.5 398.5zM109 0zM312 721q0 -213 60 -375t163.5 -250t229.5 -88q131 0 230.5 91.5t153.5 255t54 374.5 q0 213 -60 375t-163 250t-229 88q-131 0 -231 -91.5t-154 -255t-54 -374.5zM419 1700q0 31 16 58.5t43.5 44t59.5 16.5q31 0 58.5 -16.5t44 -44t16.5 -58.5q0 -32 -16.5 -59.5t-44 -43.5t-58.5 -16q-49 0 -84 35t-35 84zM853 1700q0 31 16 58.5t43.5 44t59.5 16.5 q31 0 58.5 -16.5t44 -44t16.5 -58.5q0 -32 -16.5 -59.5t-43.5 -43.5t-59 -16q-49 0 -84 35t-35 84z" />
<glyph unicode="&#xd7;" horiz-adv-x="1044" d="M120 1085l45 45l358 -358l355 354l45 -45l-355 -352l355 -354l-45 -45l-355 354l-356 -356l-45 45l356 354z" />
<glyph unicode="&#xd8;" horiz-adv-x="1518" d="M108 713q0 226 83 400t231 270t337 96q236 0 398 -127l159 231l39 -27l-161 -236q103 -96 158.5 -244t55.5 -339q0 -226 -83 -400t-231 -270t-337 -96q-234 0 -398 127l-167 -248l-43 29l172 252q-103 97 -158 244.5t-55 337.5zM312 721q0 -279 103 -472l657 999 q-61 93 -144 143.5t-177 50.5q-131 0 -231 -91.5t-154 -255t-54 -374.5zM445 200q61 -93 143.5 -142.5t176.5 -49.5q131 0 230.5 91.5t153.5 255t54 374.5q0 282 -103 472z" />
<glyph unicode="&#xd9;" horiz-adv-x="1397" d="M54 1409v41q87 -6 262 -6q165 0 261 6v-41q-74 -3 -107.5 -16t-46 -48t-12.5 -112v-678q0 -164 22 -272t92.5 -174t208.5 -66q217 0 305 139t88 391v639q0 76 -17.5 117t-57 59t-111.5 21v41q74 -6 209 -6q123 0 190 6v-41q-71 -3 -105.5 -20.5t-47 -57.5t-12.5 -119 v-616q0 -147 -19.5 -252.5t-64.5 -181.5q-52 -88 -151.5 -139.5t-223.5 -51.5q-225 0 -344 111q-61 57 -93.5 120.5t-45.5 153.5t-13 234v643q0 77 -12.5 112t-46 48t-107.5 16zM55 0zM377 1844q0 19 11 38q23 34 63 34q31 0 62 -20q41 -26 126 -104q127 -115 218 -184 l-14 -27q-106 53 -266 117q-101 38 -146 65q-54 36 -54 81z" />
<glyph unicode="&#xda;" horiz-adv-x="1397" d="M54 1409v41q87 -6 262 -6q165 0 261 6v-41q-74 -3 -107.5 -16t-46 -48t-12.5 -112v-678q0 -164 22 -272t92.5 -174t208.5 -66q217 0 305 139t88 391v639q0 76 -17.5 117t-57 59t-111.5 21v41q74 -6 209 -6q123 0 190 6v-41q-71 -3 -105.5 -20.5t-47 -57.5t-12.5 -119 v-616q0 -147 -19.5 -252.5t-64.5 -181.5q-52 -88 -151.5 -139.5t-223.5 -51.5q-225 0 -344 111q-61 57 -93.5 120.5t-45.5 153.5t-13 234v643q0 77 -12.5 112t-46 48t-107.5 16zM55 0zM595 1608q91 69 218 184q85 78 126 104q31 20 62 20q40 0 63 -34q11 -19 11 -38 q0 -45 -54 -81q-45 -27 -146 -65q-160 -64 -266 -117z" />
<glyph unicode="&#xdb;" horiz-adv-x="1397" d="M54 1409v41q87 -6 262 -6q165 0 261 6v-41q-74 -3 -107.5 -16t-46 -48t-12.5 -112v-678q0 -164 22 -272t92.5 -174t208.5 -66q217 0 305 139t88 391v639q0 76 -17.5 117t-57 59t-111.5 21v41q74 -6 209 -6q123 0 190 6v-41q-71 -3 -105.5 -20.5t-47 -57.5t-12.5 -119 v-616q0 -147 -19.5 -252.5t-64.5 -181.5q-52 -88 -151.5 -139.5t-223.5 -51.5q-225 0 -344 111q-61 57 -93.5 120.5t-45.5 153.5t-13 234v643q0 77 -12.5 112t-46 48t-107.5 16zM55 0zM319 1606q131 45 232.5 117.5t150.5 152.5h37q48 -80 149.5 -152.5t233.5 -117.5 l-11 -29q-124 26 -243 65.5t-189 77.5q-58 -38 -154.5 -77.5t-195.5 -65.5z" />
<glyph unicode="&#xdc;" horiz-adv-x="1397" d="M54 1409v41q87 -6 262 -6q165 0 261 6v-41q-74 -3 -107.5 -16t-46 -48t-12.5 -112v-678q0 -164 22 -272t92.5 -174t208.5 -66q217 0 305 139t88 391v639q0 76 -17.5 117t-57 59t-111.5 21v41q74 -6 209 -6q123 0 190 6v-41q-71 -3 -105.5 -20.5t-47 -57.5t-12.5 -119 v-616q0 -147 -19.5 -252.5t-64.5 -181.5q-52 -88 -151.5 -139.5t-223.5 -51.5q-225 0 -344 111q-61 57 -93.5 120.5t-45.5 153.5t-13 234v643q0 77 -12.5 112t-46 48t-107.5 16zM55 0zM384 1700q0 31 16 58.5t43.5 44t59.5 16.5q31 0 58.5 -16.5t44 -44t16.5 -58.5 q0 -32 -16.5 -59.5t-44 -43.5t-58.5 -16q-49 0 -84 35t-35 84zM818 1700q0 31 16 58.5t43.5 44t59.5 16.5q31 0 58.5 -16.5t44 -44t16.5 -58.5q0 -32 -16.5 -59.5t-43.5 -43.5t-59 -16q-49 0 -84 35t-35 84z" />
<glyph unicode="&#xdd;" horiz-adv-x="1210" d="M-6 1407v43q80 -6 180 -6q199 0 287 6v-43q-144 0 -144 -79q0 -30 21 -71l341 -653l261 520q56 113 56 176q0 58 -45 82.5t-136 26.5v41q117 -6 236 -6q92 0 153 6v-41q-41 -9 -80 -51.5t-84 -130.5l-321 -637v-373q0 -77 12.5 -112t46 -48t107.5 -16v-41q-96 6 -260 6 q-176 0 -263 -6v41q74 3 107.5 16t46 48t12.5 112v309l-415 766q-38 69 -65.5 92t-53.5 23zM0 0zM497 1608q91 69 218 184q85 78 126 104q31 20 62 20q40 0 63 -34q11 -19 11 -38q0 -45 -54 -81q-45 -27 -146 -65q-160 -64 -266 -117z" />
<glyph unicode="&#xde;" horiz-adv-x="1188" d="M85 0v41q74 3 107.5 16t46 48t12.5 112v1016q0 77 -12.5 112t-46 48t-107.5 16v41q86 -6 262 -6q166 0 260 6v-41q-74 -3 -107.5 -16t-46 -48t-12.5 -112v-91q42 0 102 2l87 1q160 0 271 -52t166.5 -142.5t55.5 -205.5q0 -116 -49.5 -220.5t-170 -173t-318.5 -68.5h-144 v-66q0 -77 12.5 -112t46 -48t107.5 -16v-41q-94 6 -260 6q-176 0 -262 -6zM441 324h123q201 0 278 110t77 299q0 188 -79.5 280.5t-260.5 92.5q-46 0 -138 -2v-780z" />
<glyph unicode="&#xdf;" horiz-adv-x="1196" d="M42 0v43q87 0 121.5 42.5t34.5 137.5v879q0 262 107 381t296 119q175 0 269 -78t94 -215q0 -98 -59.5 -185.5t-141 -148.5t-148.5 -88q134 -31 246.5 -105t180 -183.5t67.5 -240.5q0 -116 -51 -204t-136 -135.5t-184 -47.5q-59 0 -116.5 19.5t-95.5 59.5t-38 97 q0 50 28.5 80.5t78.5 30.5q47 0 78 -27t31 -73q0 -79 -89 -107q7 -19 38 -34t69 -15q52 0 98.5 31.5t76.5 102.5t30 183q0 120 -37 232.5t-114 197t-189 119.5q-49 -30 -76 -30q-16 0 -28.5 9t-12.5 25q0 18 12 28.5t35 10.5q31 0 74 -16q101 78 144.5 174t43.5 231 q0 131 -51 201t-149 70q-78 0 -137.5 -62t-59.5 -231v-1301q-81 29 -213 29q-62 0 -127 -6z" />
<glyph unicode="&#xe0;" horiz-adv-x="1020" d="M79 215q0 78 38 133t107 96.5t185 90.5l40 17q74 29 114.5 49t65.5 46.5t25 61.5v127q0 119 -49.5 162.5t-140.5 43.5q-145 0 -203 -73q41 -10 68.5 -43.5t27.5 -81.5q0 -52 -32.5 -81.5t-87.5 -29.5q-52 0 -81.5 35t-29.5 92q0 80 96 146q50 33 123.5 55t163.5 22 q84 0 148 -20.5t100 -56.5q47 -48 64.5 -111.5t17.5 -175.5v-569q0 -51 14.5 -74t48.5 -23q25 0 46 11t46 32l23 -35q-36 -27 -60 -42t-55 -24t-72 -9q-99 0 -137.5 49.5t-38.5 132.5q-60 -99 -144 -140.5t-171 -41.5q-71 0 -130 24.5t-94.5 76t-35.5 128.5zM80 0zM223 1608 q0 34 28 57q19 15 44 15q44 0 79 -46q27 -35 82 -140q75 -146 141 -249l-23 -18q-89 94 -206 196q-85 75 -117 115q-28 37 -28 70zM259 248q0 -89 45 -134.5t119 -45.5q136 0 231 155v402q-15 -23 -50 -43t-146 -74q-59 -28 -100 -57.5t-70 -79.5t-29 -123z" />
<glyph unicode="&#xe1;" horiz-adv-x="1020" d="M79 215q0 78 38 133t107 96.5t185 90.5l40 17q74 29 114.5 49t65.5 46.5t25 61.5v127q0 119 -49.5 162.5t-140.5 43.5q-145 0 -203 -73q41 -10 68.5 -43.5t27.5 -81.5q0 -52 -32.5 -81.5t-87.5 -29.5q-52 0 -81.5 35t-29.5 92q0 80 96 146q50 33 123.5 55t163.5 22 q84 0 148 -20.5t100 -56.5q47 -48 64.5 -111.5t17.5 -175.5v-569q0 -51 14.5 -74t48.5 -23q25 0 46 11t46 32l23 -35q-36 -27 -60 -42t-55 -24t-72 -9q-99 0 -137.5 49.5t-38.5 132.5q-60 -99 -144 -140.5t-171 -41.5q-71 0 -130 24.5t-94.5 76t-35.5 128.5zM80 0zM259 248 q0 -89 45 -134.5t119 -45.5q136 0 231 155v402q-15 -23 -50 -43t-146 -74q-59 -28 -100 -57.5t-70 -79.5t-29 -123zM376 1245q66 103 141 249q55 105 82 140q35 46 78 46q25 0 45 -15q28 -23 28 -57q0 -33 -28 -70q-29 -37 -117 -114q-130 -116 -207 -197z" />
<glyph unicode="&#xe2;" horiz-adv-x="1020" d="M79 215q0 78 38 133t107 96.5t185 90.5l40 17q74 29 114.5 49t65.5 46.5t25 61.5v127q0 119 -49.5 162.5t-140.5 43.5q-145 0 -203 -73q41 -10 68.5 -43.5t27.5 -81.5q0 -52 -32.5 -81.5t-87.5 -29.5q-52 0 -81.5 35t-29.5 92q0 80 96 146q50 33 123.5 55t163.5 22 q84 0 148 -20.5t100 -56.5q47 -48 64.5 -111.5t17.5 -175.5v-569q0 -51 14.5 -74t48.5 -23q25 0 46 11t46 32l23 -35q-36 -27 -60 -42t-55 -24t-72 -9q-99 0 -137.5 49.5t-38.5 132.5q-60 -99 -144 -140.5t-171 -41.5q-71 0 -130 24.5t-94.5 76t-35.5 128.5zM80 0zM142 1290 q117 58 208.5 153t133.5 199h37q42 -104 133.5 -199t208.5 -153l-16 -28q-111 38 -216 93.5t-169 110.5q-52 -55 -134.5 -110.5t-168.5 -93.5zM259 248q0 -89 45 -134.5t119 -45.5q136 0 231 155v402q-15 -23 -50 -43t-146 -74q-59 -28 -100 -57.5t-70 -79.5t-29 -123z" />
<glyph unicode="&#xe3;" horiz-adv-x="1020" d="M79 215q0 78 38 133t107 96.5t185 90.5l40 17q74 29 114.5 49t65.5 46.5t25 61.5v127q0 119 -49.5 162.5t-140.5 43.5q-145 0 -203 -73q41 -10 68.5 -43.5t27.5 -81.5q0 -52 -32.5 -81.5t-87.5 -29.5q-52 0 -81.5 35t-29.5 92q0 80 96 146q50 33 123.5 55t163.5 22 q84 0 148 -20.5t100 -56.5q47 -48 64.5 -111.5t17.5 -175.5v-569q0 -51 14.5 -74t48.5 -23q25 0 46 11t46 32l23 -35q-36 -27 -60 -42t-55 -24t-72 -9q-99 0 -137.5 49.5t-38.5 132.5q-60 -99 -144 -140.5t-171 -41.5q-71 0 -130 24.5t-94.5 76t-35.5 128.5zM80 0zM108 1362 q31 108 95.5 159.5t148.5 51.5q51 0 88.5 -18.5t83.5 -54.5q40 -31 69.5 -46.5t67.5 -15.5q93 0 158 108l29 -14q-31 -108 -95.5 -159.5t-146.5 -51.5q-53 0 -91.5 19.5t-83.5 55.5q-42 32 -70.5 47t-65.5 15q-91 0 -158 -110zM259 248q0 -89 45 -134.5t119 -45.5 q136 0 231 155v402q-15 -23 -50 -43t-146 -74q-59 -28 -100 -57.5t-70 -79.5t-29 -123z" />
<glyph unicode="&#xe4;" horiz-adv-x="1020" d="M79 215q0 78 38 133t107 96.5t185 90.5l40 17q74 29 114.5 49t65.5 46.5t25 61.5v127q0 119 -49.5 162.5t-140.5 43.5q-145 0 -203 -73q41 -10 68.5 -43.5t27.5 -81.5q0 -52 -32.5 -81.5t-87.5 -29.5q-52 0 -81.5 35t-29.5 92q0 80 96 146q50 33 123.5 55t163.5 22 q84 0 148 -20.5t100 -56.5q47 -48 64.5 -111.5t17.5 -175.5v-569q0 -51 14.5 -74t48.5 -23q25 0 46 11t46 32l23 -35q-36 -27 -60 -42t-55 -24t-72 -9q-99 0 -137.5 49.5t-38.5 132.5q-60 -99 -144 -140.5t-171 -41.5q-71 0 -130 24.5t-94.5 76t-35.5 128.5zM80 0zM169 1403 q0 31 16 58.5t43.5 44t59.5 16.5q31 0 58.5 -16.5t44 -44t16.5 -58.5q0 -32 -16.5 -59.5t-43.5 -43.5t-59 -16q-49 0 -84 35t-35 84zM259 248q0 -89 45 -134.5t119 -45.5q136 0 231 155v402q-15 -23 -50 -43t-146 -74q-59 -28 -100 -57.5t-70 -79.5t-29 -123zM604 1403 q0 31 16 58.5t43 44t59 16.5q31 0 58.5 -16.5t44 -44t16.5 -58.5q0 -32 -16.5 -59.5t-43.5 -43.5t-59 -16q-49 0 -83.5 35t-34.5 84z" />
<glyph unicode="&#xe5;" horiz-adv-x="1020" d="M79 215q0 78 38 133t107 96.5t185 90.5l40 17q74 29 114.5 49t65.5 46.5t25 61.5v127q0 119 -49.5 162.5t-140.5 43.5q-145 0 -203 -73q41 -10 68.5 -43.5t27.5 -81.5q0 -52 -32.5 -81.5t-87.5 -29.5q-52 0 -81.5 35t-29.5 92q0 80 96 146q50 33 123.5 55t163.5 22 q84 0 148 -20.5t100 -56.5q47 -48 64.5 -111.5t17.5 -175.5v-569q0 -51 14.5 -74t48.5 -23q25 0 46 11t46 32l23 -35q-36 -27 -60 -42t-55 -24t-72 -9q-99 0 -137.5 49.5t-38.5 132.5q-60 -99 -144 -140.5t-171 -41.5q-71 0 -130 24.5t-94.5 76t-35.5 128.5zM80 0zM259 248 q0 -89 45 -134.5t119 -45.5q136 0 231 155v402q-15 -23 -50 -43t-146 -74q-59 -28 -100 -57.5t-70 -79.5t-29 -123zM307 1434q0 55 27 97.5t72 65.5t97 23q54 0 99.5 -23t72.5 -65.5t27 -97.5q0 -57 -27 -100t-72.5 -66t-99.5 -23q-53 0 -97.5 23t-71.5 66t-27 100z M364 1432q0 -46 20.5 -78.5t52.5 -49t66 -16.5q36 0 68.5 16.5t53 49t20.5 78.5q0 45 -20.5 78t-53.5 50t-68 17q-34 0 -66 -17t-52.5 -50t-20.5 -78z" />
<glyph unicode="&#xe6;" horiz-adv-x="1520" d="M83 197q0 83 38 142.5t105.5 102.5t175.5 90l41 18q78 34 117.5 54t63.5 45.5t24 59.5v127q0 206 -200 206q-57 0 -111 -16.5t-86 -56.5q40 -9 63 -36t23 -69q0 -50 -32.5 -80t-80.5 -30q-47 0 -77.5 30.5t-30.5 77.5q0 82 96 148q107 73 281 73q102 0 174 -29.5 t112 -100.5q107 130 289 130q174 0 268.5 -111.5t94.5 -338.5h-596q-7 -55 -7 -131q0 -135 40.5 -236t107 -155t141.5 -54q85 0 150 47.5t110 157.5l41 -16q-22 -72 -68.5 -134.5t-116.5 -101.5t-157 -39q-140 0 -236.5 67.5t-143.5 194.5q-115 -262 -351 -262 q-69 0 -128.5 23.5t-96.5 74t-37 128.5zM263 231q0 -94 46 -136t114 -42q142 0 225 170v402q-36 -42 -166 -105q-107 -52 -163 -118.5t-56 -170.5zM831 672h403q3 103 -15.5 187.5t-59 134.5t-99.5 50q-58 0 -106 -40t-80.5 -123.5t-42.5 -208.5z" />
<glyph unicode="&#xe7;" horiz-adv-x="995" d="M93 514q0 166 60.5 295.5t169.5 201.5t247 72t238 -65q96 -65 96 -158q0 -54 -30.5 -84.5t-77.5 -30.5q-48 0 -80.5 27.5t-32.5 75.5q0 44 24.5 73.5t61.5 39.5q-20 37 -73 61.5t-111 24.5q-75 0 -141 -48t-109 -160t-43 -294q0 -255 82 -370.5t213 -115.5q87 0 166.5 51 t130.5 160l39 -14q-23 -73 -71 -137.5t-125.5 -106t-180.5 -41.5h-19l-39 -118q61 14 121 14q58 0 91.5 -25.5t33.5 -70.5q0 -54 -35.5 -89t-88.5 -51t-108 -16q-105 0 -170 23l9 36q42 -6 77 -6q74 0 129.5 21.5t55.5 70.5q0 58 -86 58q-59 0 -101 -15l58 174 q-110 18 -196.5 87.5t-135.5 185t-49 264.5z" />
<glyph unicode="&#xe8;" horiz-adv-x="1036" d="M93 502q0 178 57 309t161.5 201.5t244.5 70.5q184 0 283.5 -111.5t99.5 -338.5h-640q-7 -55 -7 -131q0 -135 44.5 -236t116.5 -155t152 -54q206 0 301 205l41 -16q-24 -72 -76.5 -134.5t-131 -101.5t-175.5 -39q-146 0 -252.5 66.5t-162.5 187t-56 277.5zM94 0zM274 1608 q0 34 28 57q19 15 44 15q44 0 79 -46q27 -35 82 -140q75 -146 141 -249l-23 -18q-89 94 -206 196q-85 75 -117 115q-28 37 -28 70zM296 672h446q4 102 -17 187t-66 135t-111 50q-63 0 -116 -40.5t-89 -124t-47 -207.5z" />
<glyph unicode="&#xe9;" horiz-adv-x="1036" d="M93 502q0 178 57 309t161.5 201.5t244.5 70.5q184 0 283.5 -111.5t99.5 -338.5h-640q-7 -55 -7 -131q0 -135 44.5 -236t116.5 -155t152 -54q206 0 301 205l41 -16q-24 -72 -76.5 -134.5t-131 -101.5t-175.5 -39q-146 0 -252.5 66.5t-162.5 187t-56 277.5zM94 0zM296 672 h446q4 102 -17 187t-66 135t-111 50q-63 0 -116 -40.5t-89 -124t-47 -207.5zM427 1245q66 103 141 249q55 105 82 140q35 46 78 46q25 0 45 -15q28 -23 28 -57q0 -33 -28 -70q-29 -37 -117 -114q-130 -116 -207 -197z" />
<glyph unicode="&#xea;" horiz-adv-x="1036" d="M93 502q0 178 57 309t161.5 201.5t244.5 70.5q184 0 283.5 -111.5t99.5 -338.5h-640q-7 -55 -7 -131q0 -135 44.5 -236t116.5 -155t152 -54q206 0 301 205l41 -16q-24 -72 -76.5 -134.5t-131 -101.5t-175.5 -39q-146 0 -252.5 66.5t-162.5 187t-56 277.5zM94 0zM193 1290 q117 58 208.5 153t133.5 199h37q42 -104 133.5 -199t208.5 -153l-16 -28q-111 38 -216 93.5t-169 110.5q-52 -55 -134.5 -110.5t-168.5 -93.5zM296 672h446q4 102 -17 187t-66 135t-111 50q-63 0 -116 -40.5t-89 -124t-47 -207.5z" />
<glyph unicode="&#xeb;" horiz-adv-x="1036" d="M93 502q0 178 57 309t161.5 201.5t244.5 70.5q184 0 283.5 -111.5t99.5 -338.5h-640q-7 -55 -7 -131q0 -135 44.5 -236t116.5 -155t152 -54q206 0 301 205l41 -16q-24 -72 -76.5 -134.5t-131 -101.5t-175.5 -39q-146 0 -252.5 66.5t-162.5 187t-56 277.5zM94 0zM220 1403 q0 31 16 58.5t43.5 44t59.5 16.5q31 0 58.5 -16.5t44 -44t16.5 -58.5q0 -32 -16.5 -59.5t-43.5 -43.5t-59 -16q-49 0 -84 35t-35 84zM296 672h446q4 102 -17 187t-66 135t-111 50q-63 0 -116 -40.5t-89 -124t-47 -207.5zM655 1403q0 31 16 58.5t43 44t59 16.5 q31 0 58.5 -16.5t44 -44t16.5 -58.5q0 -32 -16.5 -59.5t-43.5 -43.5t-59 -16q-49 0 -83.5 35t-34.5 84z" />
<glyph unicode="&#xec;" horiz-adv-x="600" d="M8 1608q0 34 28 57q19 15 44 15q44 0 79 -46q27 -35 82 -140q75 -146 141 -249l-23 -18q-89 94 -206 196q-85 75 -117 115q-28 37 -28 70zM9 0zM58 0v43q58 0 91.5 13t49 45t15.5 89v641q0 95 -34.5 138t-121.5 43v43q64 -6 127 -6q130 0 213 28v-887q0 -57 15.5 -89 t49 -45t91.5 -13v-43l-31 1q-126 7 -217 7t-217 -7z" />
<glyph unicode="&#xed;" horiz-adv-x="600" d="M58 0v43q58 0 91.5 13t49 45t15.5 89v641q0 95 -34.5 138t-121.5 43v43q64 -6 127 -6q130 0 213 28v-887q0 -57 15.5 -89t49 -45t91.5 -13v-43l-31 1q-126 7 -217 7t-217 -7zM59 0zM161 1245q66 103 141 249q55 105 82 140q35 46 78 46q25 0 45 -15q28 -23 28 -57 q0 -33 -28 -70q-29 -37 -117 -114q-130 -116 -207 -197z" />
<glyph unicode="&#xee;" horiz-adv-x="600" d="M-73 1290q117 58 208.5 153t133.5 199h37q42 -104 133.5 -199t208.5 -153l-16 -28q-111 38 -216 93.5t-169 110.5q-52 -55 -134.5 -110.5t-168.5 -93.5zM0 0zM58 0v43q58 0 91.5 13t49 45t15.5 89v641q0 95 -34.5 138t-121.5 43v43q64 -6 127 -6q130 0 213 28v-887 q0 -57 15.5 -89t49 -45t91.5 -13v-43l-31 1q-126 7 -217 7t-217 -7z" />
<glyph unicode="&#xef;" horiz-adv-x="600" d="M-46 1403q0 31 16 58.5t43.5 44t59.5 16.5q31 0 58.5 -16.5t44 -44t16.5 -58.5q0 -32 -16.5 -59.5t-43.5 -43.5t-59 -16q-49 0 -84 35t-35 84zM0 0zM58 0v43q58 0 91.5 13t49 45t15.5 89v641q0 95 -34.5 138t-121.5 43v43q64 -6 127 -6q130 0 213 28v-887q0 -57 15.5 -89 t49 -45t91.5 -13v-43l-31 1q-126 7 -217 7t-217 -7zM389 1403q0 31 16 58.5t43 44t59 16.5q31 0 58.5 -16.5t44 -44t16.5 -58.5q0 -32 -16.5 -59.5t-43.5 -43.5t-59 -16q-49 0 -83.5 35t-34.5 84z" />
<glyph unicode="&#xf0;" horiz-adv-x="1135" d="M93 522q0 141 52 270t153 210t242 81q167 0 245 -106q-60 244 -218 396l-369 -181l-19 37l356 173q-100 85 -270 165l17 35q188 -75 319 -168l289 141l18 -37l-270 -131q381 -289 381 -789q0 -211 -65 -357t-171 -218t-231 -72q-136 0 -239.5 62.5t-161.5 186t-58 302.5z M292 518q0 -176 33.5 -289t90 -165t126.5 -52q123 0 202.5 140t79.5 466q0 75 -4 131q-35 291 -266 291q-119 0 -190.5 -124t-71.5 -398z" />
<glyph unicode="&#xf1;" horiz-adv-x="1223" d="M58 0v43q58 0 91.5 13t49 45t15.5 89v641q0 95 -34.5 138t-121.5 43v43q64 -6 127 -6q130 0 213 28v-241q51 130 142.5 188.5t206.5 58.5q143 0 217 -77q38 -42 54.5 -103.5t16.5 -165.5v-547q0 -57 15.5 -89t49 -45t91.5 -13v-43l-30 1q-128 7 -216 7q-84 0 -201 -7 l-28 -1v43q51 0 79.5 13t42 45t13.5 89v592q0 74 -11.5 124t-48 81t-106.5 31q-84 0 -149.5 -49t-101.5 -134.5t-36 -189.5v-455q0 -57 13.5 -89t42.5 -45t80 -13v-43l-28 1q-114 7 -202 7t-216 -7zM59 0zM231 1362q31 108 95.5 159.5t148.5 51.5q51 0 88.5 -18.5 t83.5 -54.5q40 -31 69.5 -46.5t67.5 -15.5q93 0 158 108l29 -14q-31 -108 -95.5 -159.5t-146.5 -51.5q-53 0 -91.5 19.5t-83.5 55.5q-42 32 -70.5 47t-65.5 15q-91 0 -158 -110z" />
<glyph unicode="&#xf2;" horiz-adv-x="1122" d="M95 526q0 190 60.5 314.5t165 183.5t239.5 59t239.5 -59t165 -183.5t60.5 -314.5t-60.5 -314t-165 -182.5t-239.5 -58.5t-239.5 58.5t-165 182.5t-60.5 314zM96 0zM286 1608q0 34 28 57q19 15 44 15q44 0 79 -46q27 -35 82 -140q75 -146 141 -249l-23 -18 q-89 94 -206 196q-85 75 -117 115q-28 37 -28 70zM294 526q0 -263 71.5 -388.5t194.5 -125.5t194.5 125.5t71.5 388.5q0 264 -71.5 390t-194.5 126t-194.5 -126t-71.5 -390z" />
<glyph unicode="&#xf3;" horiz-adv-x="1122" d="M95 526q0 190 60.5 314.5t165 183.5t239.5 59t239.5 -59t165 -183.5t60.5 -314.5t-60.5 -314t-165 -182.5t-239.5 -58.5t-239.5 58.5t-165 182.5t-60.5 314zM96 0zM294 526q0 -263 71.5 -388.5t194.5 -125.5t194.5 125.5t71.5 388.5q0 264 -71.5 390t-194.5 126 t-194.5 -126t-71.5 -390zM439 1245q66 103 141 249q55 105 82 140q35 46 78 46q25 0 45 -15q28 -23 28 -57q0 -33 -28 -70q-29 -37 -117 -114q-130 -116 -207 -197z" />
<glyph unicode="&#xf4;" horiz-adv-x="1122" d="M95 526q0 190 60.5 314.5t165 183.5t239.5 59t239.5 -59t165 -183.5t60.5 -314.5t-60.5 -314t-165 -182.5t-239.5 -58.5t-239.5 58.5t-165 182.5t-60.5 314zM96 0zM205 1290q117 58 208.5 153t133.5 199h37q42 -104 133.5 -199t208.5 -153l-16 -28q-111 38 -216 93.5 t-169 110.5q-52 -55 -134.5 -110.5t-168.5 -93.5zM294 526q0 -263 71.5 -388.5t194.5 -125.5t194.5 125.5t71.5 388.5q0 264 -71.5 390t-194.5 126t-194.5 -126t-71.5 -390z" />
<glyph unicode="&#xf5;" horiz-adv-x="1122" d="M95 526q0 190 60.5 314.5t165 183.5t239.5 59t239.5 -59t165 -183.5t60.5 -314.5t-60.5 -314t-165 -182.5t-239.5 -58.5t-239.5 58.5t-165 182.5t-60.5 314zM96 0zM171 1362q31 108 95.5 159.5t148.5 51.5q51 0 88.5 -18.5t83.5 -54.5q40 -31 69.5 -46.5t67.5 -15.5 q93 0 158 108l29 -14q-31 -108 -95.5 -159.5t-146.5 -51.5q-53 0 -91.5 19.5t-83.5 55.5q-42 32 -70.5 47t-65.5 15q-91 0 -158 -110zM294 526q0 -263 71.5 -388.5t194.5 -125.5t194.5 125.5t71.5 388.5q0 264 -71.5 390t-194.5 126t-194.5 -126t-71.5 -390z" />
<glyph unicode="&#xf6;" horiz-adv-x="1122" d="M95 526q0 190 60.5 314.5t165 183.5t239.5 59t239.5 -59t165 -183.5t60.5 -314.5t-60.5 -314t-165 -182.5t-239.5 -58.5t-239.5 58.5t-165 182.5t-60.5 314zM96 0zM232 1403q0 31 16 58.5t43.5 44t59.5 16.5q31 0 58.5 -16.5t44 -44t16.5 -58.5q0 -32 -16.5 -59.5 t-43.5 -43.5t-59 -16q-49 0 -84 35t-35 84zM294 526q0 -263 71.5 -388.5t194.5 -125.5t194.5 125.5t71.5 388.5q0 264 -71.5 390t-194.5 126t-194.5 -126t-71.5 -390zM667 1403q0 31 16 58.5t43 44t59 16.5q31 0 58.5 -16.5t44 -44t16.5 -58.5q0 -32 -16.5 -59.5 t-43.5 -43.5t-59 -16q-49 0 -83.5 35t-34.5 84z" />
<glyph unicode="&#xf7;" horiz-adv-x="1329" d="M149 696v62h1026v-62h-1026zM550 432q0 47 33.5 80t79.5 33q47 0 80.5 -33t33.5 -80t-33.5 -81t-80.5 -34q-46 0 -79.5 34t-33.5 81zM550 1022q0 46 33.5 79.5t79.5 33.5q47 0 80.5 -33.5t33.5 -79.5q0 -48 -33 -80.5t-81 -32.5q-47 0 -80 32.5t-33 80.5z" />
<glyph unicode="&#xf8;" horiz-adv-x="1120" d="M89 -121l148 215q-142 145 -142 432q0 190 60.5 314.5t165 183.5t239.5 59q174 0 289 -93l145 212l39 -26l-148 -219q140 -143 140 -431q0 -190 -60.5 -314t-165 -182.5t-239.5 -58.5q-170 0 -285 89l-143 -210zM294 526q0 -192 41 -315l431 683q-68 148 -206 148 q-123 0 -194.5 -126t-71.5 -390zM358 153q68 -141 202 -141q123 0 194.5 125.5t71.5 388.5q0 189 -39 311z" />
<glyph unicode="&#xf9;" horiz-adv-x="1190" d="M32 1012v43q64 -6 127 -6q129 0 213 28v-805q0 -78 9 -126t43 -78.5t103 -30.5q79 0 142 49t99 134t36 188v423q0 95 -34.5 138t-121.5 43v43q64 -6 127 -6q130 0 213 28v-856q0 -95 34.5 -137.5t121.5 -42.5v-43q-64 6 -127 6q-132 0 -213 -29v242q-50 -126 -139.5 -186 t-196.5 -60q-138 0 -213 78q-37 40 -52.5 104t-15.5 164v514q0 95 -34 138t-121 43zM33 0zM292 1608q0 34 28 57q19 15 44 15q44 0 79 -46q27 -35 82 -140q75 -146 141 -249l-23 -18q-89 94 -206 196q-85 75 -117 115q-28 37 -28 70z" />
<glyph unicode="&#xfa;" horiz-adv-x="1190" d="M32 1012v43q64 -6 127 -6q129 0 213 28v-805q0 -78 9 -126t43 -78.5t103 -30.5q79 0 142 49t99 134t36 188v423q0 95 -34.5 138t-121.5 43v43q64 -6 127 -6q130 0 213 28v-856q0 -95 34.5 -137.5t121.5 -42.5v-43q-64 6 -127 6q-132 0 -213 -29v242q-50 -126 -139.5 -186 t-196.5 -60q-138 0 -213 78q-37 40 -52.5 104t-15.5 164v514q0 95 -34 138t-121 43zM33 0zM445 1245q66 103 141 249q55 105 82 140q35 46 78 46q25 0 45 -15q28 -23 28 -57q0 -33 -28 -70q-29 -37 -117 -114q-130 -116 -207 -197z" />
<glyph unicode="&#xfb;" horiz-adv-x="1190" d="M32 1012v43q64 -6 127 -6q129 0 213 28v-805q0 -78 9 -126t43 -78.5t103 -30.5q79 0 142 49t99 134t36 188v423q0 95 -34.5 138t-121.5 43v43q64 -6 127 -6q130 0 213 28v-856q0 -95 34.5 -137.5t121.5 -42.5v-43q-64 6 -127 6q-132 0 -213 -29v242q-50 -126 -139.5 -186 t-196.5 -60q-138 0 -213 78q-37 40 -52.5 104t-15.5 164v514q0 95 -34 138t-121 43zM33 0zM211 1290q117 58 208.5 153t133.5 199h37q42 -104 133.5 -199t208.5 -153l-16 -28q-111 38 -216 93.5t-169 110.5q-52 -55 -134.5 -110.5t-168.5 -93.5z" />
<glyph unicode="&#xfc;" horiz-adv-x="1190" d="M32 1012v43q64 -6 127 -6q129 0 213 28v-805q0 -78 9 -126t43 -78.5t103 -30.5q79 0 142 49t99 134t36 188v423q0 95 -34.5 138t-121.5 43v43q64 -6 127 -6q130 0 213 28v-856q0 -95 34.5 -137.5t121.5 -42.5v-43q-64 6 -127 6q-132 0 -213 -29v242q-50 -126 -139.5 -186 t-196.5 -60q-138 0 -213 78q-37 40 -52.5 104t-15.5 164v514q0 95 -34 138t-121 43zM33 0zM238 1403q0 31 16 58.5t43.5 44t59.5 16.5q31 0 58.5 -16.5t44 -44t16.5 -58.5q0 -32 -16.5 -59.5t-43.5 -43.5t-59 -16q-49 0 -84 35t-35 84zM673 1403q0 31 16 58.5t43 44t59 16.5 q31 0 58.5 -16.5t44 -44t16.5 -58.5q0 -32 -16.5 -59.5t-43.5 -43.5t-59 -16q-49 0 -83.5 35t-34.5 84z" />
<glyph unicode="&#xfd;" horiz-adv-x="1032" d="M-8 1012v43q96 -13 201 -13q88 0 266 13v-43q-50 0 -78 -3.5t-46.5 -19t-18.5 -48.5q0 -37 26 -101l247 -612l226 593q22 60 22 94q0 48 -36.5 71t-116.5 28v41q108 -6 172 -6q91 0 156 6v-41q-41 -5 -73 -37t-60 -107l-336 -880l-70 -178q-39 -101 -88 -144 q-58 -53 -160 -53q-61 0 -100 32.5t-39 90.5q0 49 29 78.5t80 29.5q45 0 74.5 -25t29.5 -71q0 -61 -55 -92q4 -2 12 -2q113 0 174 160l73 187l-372 894q-35 71 -69.5 93t-69.5 22zM0 0zM392 1245q66 103 141 249q55 105 82 140q35 46 78 46q25 0 45 -15q28 -23 28 -57 q0 -33 -28 -70q-29 -37 -117 -114q-130 -116 -207 -197z" />
<glyph unicode="&#xfe;" horiz-adv-x="1145" d="M0 1538v43q64 -6 127 -6q132 0 213 29v-743q46 106 132.5 164t195.5 58t195.5 -59t136 -174t49.5 -275q0 -157 -50 -294.5t-155.5 -223.5t-263.5 -86q-78 0 -141 30.5t-99 80.5v-262q0 -83 49 -115.5t148 -32.5v-43l-58 2q-147 7 -237 7q-71 0 -183 -7q-30 -2 -39 -2v43 q51 0 80 11.5t42.5 39t13.5 76.5v1559q0 95 -34.5 137.5t-121.5 42.5zM340 150q30 -61 84.5 -96.5t132.5 -35.5q293 0 293 529q0 475 -238 475q-93 0 -166.5 -66.5t-105.5 -192.5v-613z" />
<glyph unicode="&#xff;" horiz-adv-x="1032" d="M-8 1012v43q96 -13 201 -13q88 0 266 13v-43q-50 0 -78 -3.5t-46.5 -19t-18.5 -48.5q0 -37 26 -101l247 -612l226 593q22 60 22 94q0 48 -36.5 71t-116.5 28v41q108 -6 172 -6q91 0 156 6v-41q-41 -5 -73 -37t-60 -107l-336 -880l-70 -178q-39 -101 -88 -144 q-58 -53 -160 -53q-61 0 -100 32.5t-39 90.5q0 49 29 78.5t80 29.5q45 0 74.5 -25t29.5 -71q0 -61 -55 -92q4 -2 12 -2q113 0 174 160l73 187l-372 894q-35 71 -69.5 93t-69.5 22zM0 0zM185 1403q0 31 16 58.5t43.5 44t59.5 16.5q31 0 58.5 -16.5t44 -44t16.5 -58.5 q0 -32 -16.5 -59.5t-43.5 -43.5t-59 -16q-49 0 -84 35t-35 84zM620 1403q0 31 16 58.5t43 44t59 16.5q31 0 58.5 -16.5t44 -44t16.5 -58.5q0 -32 -16.5 -59.5t-43.5 -43.5t-59 -16q-49 0 -83.5 35t-34.5 84z" />
<glyph unicode="&#x152;" horiz-adv-x="1901" d="M108 713q0 226 83 400t231 270t337 96q95 0 180 -31q164 -4 434 -4q273 0 387 6q-14 -134 -14 -242q0 -80 6 -127h-47q-15 133 -37.5 198t-75.5 94.5t-161 29.5h-68q-74 0 -107.5 -12t-46 -46.5t-12.5 -111.5v-483h88q71 0 109.5 29t52.5 68t23 97l6 35h47 q-7 -83 -7 -159l1 -91q0 -88 12 -250h-47l-4 26q-9 68 -23 108.5t-53.5 68t-116.5 27.5h-88v-492q0 -77 12.5 -111.5t46 -46.5t107.5 -12h47q128 0 194.5 34t96 109t45.5 220h47q-6 -55 -6 -148q0 -116 14 -262q-127 6 -428 6q-287 0 -448 -4q-84 -31 -168 -31 q-195 0 -341.5 88t-227 255.5t-80.5 398.5zM312 721q0 -213 60 -375t163.5 -250t229.5 -88q57 0 113 22.5t92.5 69.5t36.5 117v1016q0 106 -71.5 157.5t-184.5 51.5q-131 0 -231 -91.5t-154 -255t-54 -374.5z" />
<glyph unicode="&#x153;" horiz-adv-x="1710" d="M97 526q0 190 58 314t158 182.5t229 58.5q117 0 208.5 -59.5t141.5 -181.5q54 117 146 180t212 63q175 0 269 -111.5t94 -338.5h-620q-7 -55 -7 -131q0 -135 44.5 -236t116.5 -155t152 -54q92 0 162 47.5t119 157.5l41 -16q-23 -72 -72.5 -134.5t-124 -101.5t-165.5 -39 q-128 0 -222.5 61t-147.5 172q-52 -118 -142 -175.5t-205 -57.5q-129 0 -229 58.5t-158 183t-58 313.5zM296 526q0 -263 66 -388.5t180 -125.5q113 0 179 125.5t66 388.5t-66 388.5t-179 125.5q-114 0 -180 -125t-66 -389zM990 672h426q3 103 -15.5 187.5t-59 134.5 t-99.5 50q-63 0 -116 -40t-89 -123.5t-47 -208.5z" />
<glyph unicode="&#x178;" horiz-adv-x="1210" d="M-6 1407v43q80 -6 180 -6q199 0 287 6v-43q-144 0 -144 -79q0 -30 21 -71l341 -653l261 520q56 113 56 176q0 58 -45 82.5t-136 26.5v41q117 -6 236 -6q92 0 153 6v-41q-41 -9 -80 -51.5t-84 -130.5l-321 -637v-373q0 -77 12.5 -112t46 -48t107.5 -16v-41q-96 6 -260 6 q-176 0 -263 -6v41q74 3 107.5 16t46 48t12.5 112v309l-415 766q-38 69 -65.5 92t-53.5 23zM0 0zM286 1700q0 31 16 58.5t43.5 44t59.5 16.5q31 0 58.5 -16.5t44 -44t16.5 -58.5q0 -32 -16.5 -59.5t-44 -43.5t-58.5 -16q-49 0 -84 35t-35 84zM720 1700q0 31 16 58.5t43.5 44 t59.5 16.5q31 0 58.5 -16.5t44 -44t16.5 -58.5q0 -32 -16.5 -59.5t-43.5 -43.5t-59 -16q-49 0 -84 35t-35 84z" />
<glyph unicode="&#x2c6;" horiz-adv-x="823" d="M50 1290q117 58 208.5 153t133.5 199h37q42 -104 133.5 -199t208.5 -153l-16 -28q-111 38 -216 93.5t-169 110.5q-52 -55 -134.5 -110.5t-168.5 -93.5z" />
<glyph unicode="&#x2dc;" horiz-adv-x="842" d="M50 1362q31 108 95.5 159.5t148.5 51.5q51 0 88.5 -18.5t83.5 -54.5q40 -31 69.5 -46.5t67.5 -15.5q93 0 158 108l29 -14q-31 -108 -95.5 -159.5t-146.5 -51.5q-53 0 -91.5 19.5t-83.5 55.5q-42 32 -70.5 47t-65.5 15q-91 0 -158 -110z" />
<glyph unicode="&#x2000;" horiz-adv-x="958" />
<glyph unicode="&#x2001;" horiz-adv-x="1916" />
<glyph unicode="&#x2002;" horiz-adv-x="958" />
<glyph unicode="&#x2003;" horiz-adv-x="1916" />
<glyph unicode="&#x2004;" horiz-adv-x="638" />
<glyph unicode="&#x2005;" horiz-adv-x="479" />
<glyph unicode="&#x2006;" horiz-adv-x="319" />
<glyph unicode="&#x2007;" horiz-adv-x="319" />
<glyph unicode="&#x2008;" horiz-adv-x="239" />
<glyph unicode="&#x2009;" horiz-adv-x="383" />
<glyph unicode="&#x200a;" horiz-adv-x="106" />
<glyph unicode="&#x2010;" horiz-adv-x="1022" d="M140 492v118h740v-118h-740z" />
<glyph unicode="&#x2011;" horiz-adv-x="1022" d="M140 492v118h740v-118h-740z" />
<glyph unicode="&#x2012;" horiz-adv-x="1022" d="M140 492v118h740v-118h-740z" />
<glyph unicode="&#x2013;" horiz-adv-x="1169" d="M120 510v82h928v-82h-928z" />
<glyph unicode="&#x2014;" horiz-adv-x="1765" d="M120 510v82h1524v-82h-1524z" />
<glyph unicode="&#x2018;" horiz-adv-x="508" d="M112 963zM113 1163q0 103 52.5 184.5t158.5 131.5l19 -37q-64 -27 -110 -84.5t-46 -116.5q0 -25 6 -43q35 27 76 27q56 0 93.5 -35.5t37.5 -95.5q0 -56 -38 -93.5t-93 -37.5q-79 0 -121 65q-35 54 -35 135z" />
<glyph unicode="&#x2019;" horiz-adv-x="502" d="M110 1347q0 56 38 93.5t93 37.5q79 0 121 -65q35 -54 35 -135q0 -103 -52.5 -184.5t-158.5 -131.5l-19 37q64 27 110 84.5t46 116.5q0 25 -6 43q-35 -27 -76 -27q-56 0 -93.5 35.5t-37.5 95.5zM111 962z" />
<glyph unicode="&#x201a;" horiz-adv-x="535" d="M126 102q0 56 38 93.5t93 37.5q79 0 121 -65q35 -54 35 -135q0 -103 -52.5 -184.5t-158.5 -131.5l-19 37q64 27 110 84.5t46 116.5q0 25 -6 43q-35 -27 -76 -27q-56 0 -93.5 35.5t-37.5 95.5zM127 0z" />
<glyph unicode="&#x201c;" horiz-adv-x="856" d="M112 963zM113 1163q0 103 52.5 184.5t158.5 131.5l19 -37q-64 -27 -110 -84.5t-46 -116.5q0 -25 6 -43q34 27 76 27q55 0 93 -35.5t38 -95.5q0 -37 -18 -67t-48 -47t-65 -17q-79 0 -121 65q-35 54 -35 135zM461 1163q0 103 52.5 184.5t158.5 131.5l19 -37 q-64 -27 -110 -84.5t-46 -116.5q0 -25 6 -43q35 27 76 27q56 0 93.5 -35.5t37.5 -95.5q0 -56 -38 -93.5t-93 -37.5q-79 0 -121 65q-35 54 -35 135z" />
<glyph unicode="&#x201d;" horiz-adv-x="850" d="M110 1347q0 56 38 93.5t93 37.5q79 0 121 -65q35 -54 35 -135q0 -103 -52.5 -184.5t-158.5 -131.5l-19 37q64 27 110 84.5t46 116.5q0 25 -6 43q-35 -27 -76 -27q-56 0 -93.5 35.5t-37.5 95.5zM111 962zM458 1347q0 37 18 67t48 47t65 17q79 0 121 -65q35 -54 35 -135 q0 -103 -52.5 -184.5t-158.5 -131.5l-19 37q64 27 110 84.5t46 116.5q0 25 -6 43q-34 -27 -76 -27q-55 0 -93 35.5t-38 95.5z" />
<glyph unicode="&#x201e;" horiz-adv-x="883" d="M126 102q0 56 38 93.5t93 37.5q79 0 121 -65q35 -54 35 -135q0 -103 -52.5 -184.5t-158.5 -131.5l-19 37q64 27 110 84.5t46 116.5q0 25 -6 43q-35 -27 -76 -27q-56 0 -93.5 35.5t-37.5 95.5zM474 102q0 37 18 67t48 47t65 17q79 0 121 -65q35 -54 35 -135 q0 -103 -52.5 -184.5t-158.5 -131.5l-19 37q64 27 110 84.5t46 116.5q0 25 -6 43q-34 -27 -76 -27q-55 0 -93 35.5t-38 95.5z" />
<glyph unicode="&#x2022;" horiz-adv-x="903" d="M159 551q0 80 39 147t105.5 106.5t146.5 39.5q79 0 146 -39.5t106.5 -106.5t39.5 -147t-39.5 -146.5t-106.5 -105.5t-146 -39q-80 0 -146.5 39t-105.5 105.5t-39 146.5z" />
<glyph unicode="&#x2026;" horiz-adv-x="1665" d="M126 102q0 35 17.5 65.5t48 48t65.5 17.5t65.5 -17.5t48 -48t17.5 -65.5t-17.5 -65t-48 -48t-65.5 -18t-65.5 18t-48 48t-17.5 65zM127 0zM701 102q0 35 17.5 65.5t48 48t65.5 17.5t65.5 -17.5t48 -48t17.5 -65.5t-17.5 -65t-48 -48t-65.5 -18t-65.5 18t-48 48t-17.5 65z M1275 102q0 35 17.5 65.5t48 48t65.5 17.5t65.5 -17.5t48 -48t17.5 -65.5t-17.5 -65t-48 -48t-65.5 -18t-65.5 18t-48 48t-17.5 65z" />
<glyph unicode="&#x202f;" horiz-adv-x="383" />
<glyph unicode="&#x2039;" horiz-adv-x="670" d="M65 526v2q158 88 270.5 223.5t200.5 331.5l34 -14q-71 -191 -155 -313.5t-197 -220.5q110 -96 194.5 -225.5t157.5 -323.5l-34 -15q-88 196 -200.5 332t-270.5 223z" />
<glyph unicode="&#x203a;" horiz-adv-x="670" d="M97 -14q72 191 155.5 313t197.5 221q-110 96 -194.5 225t-158.5 324l35 14q88 -196 200.5 -331.5t270.5 -223.5v-2q-158 -87 -270.5 -223t-200.5 -332z" />
<glyph unicode="&#x205f;" horiz-adv-x="479" />
<glyph unicode="&#x20ac;" horiz-adv-x="1196" d="M67 608v41h148q-1 21 -1 64q0 57 4 100h-151v41h155q21 188 95 329.5t189 218.5t257 77q127 0 227 -72q96 -70 96 -147q0 -48 -30.5 -78.5t-77.5 -30.5q-48 0 -80.5 30t-32.5 81q0 42 23.5 69t62.5 35q-15 31 -69.5 54.5t-112.5 23.5q-100 0 -173.5 -70.5t-117 -203 t-55.5 -316.5h438l-22 -41h-418q-2 -60 -2 -92q0 -49 1 -72h327l-25 -41h-300q14 -291 102.5 -446.5t242.5 -155.5q58 0 112.5 23.5t69.5 54.5q-39 8 -62.5 35t-23.5 69q0 51 32.5 81t80.5 30q47 0 77.5 -30.5t30.5 -78.5q0 -75 -96 -147q-100 -72 -227 -72 q-151 0 -268.5 75.5t-188.5 218.5t-86 343h-151z" />
<glyph unicode="&#x2122;" horiz-adv-x="2138" d="M142 1450q109 -6 373 -6q262 0 371 6q-15 -108 -15 -180q0 -69 7 -107h-48q-9 132 -40 186t-91 54h-110v-612q0 -60 10.5 -86t39 -36t95.5 -14v-41q-96 7 -219 7q-135 0 -221 -7v41q66 4 95 14t39.5 36.5t10.5 85.5v612h-110q-60 0 -91 -54t-40 -186h-47q6 41 6 107 q0 82 -15 180zM1003 614v41q48 4 68.5 12t28 30t7.5 73v524q0 51 -7.5 73.5t-28 30.5t-68.5 11v41q45 -6 129 -6q71 0 139 6l248 -608l227 602h96q100 0 158 6v-41q-48 -3 -68.5 -11t-28.5 -30.5t-8 -73.5v-524q0 -51 7.5 -73t28 -30t69.5 -12v-41q-79 7 -178 7 q-95 0 -160 -7v41q38 4 54.5 12t23 30.5t6.5 72.5v545l-268 -711h-33l-291 715v-549q0 -50 6.5 -72.5t23 -30.5t54.5 -12v-41q-51 7 -106 7q-76 0 -129 -7z" />
<glyph unicode="&#x25fc;" horiz-adv-x="1055" d="M0 0v1055h1055v-1055h-1055z" />
<glyph unicode="&#xfb03;" horiz-adv-x="1925" d="M52 1012v41h164q0 217 100 333q56 62 139.5 98t184.5 36q205 0 310 -139q31 50 71 87q64 61 160 97.5t223 36.5q84 0 156.5 -17t117.5 -45q70 -44 70 -113q0 -36 -17.5 -66.5t-48 -48.5t-65.5 -18t-65.5 18t-48 48t-17.5 65q0 37 18 67.5t49 47.5q-46 31 -149 31 q-104 0 -177 -41.5t-114 -116.5q-30 -53 -42.5 -133.5t-12.5 -226.5h330q127 0 201 5t139 19v-887q0 -57 15.5 -89t48.5 -45t91 -13v-43l-31 1q-126 7 -217 7q-90 0 -216 -7l-31 -1v43q58 0 91 13t48.5 45t15.5 89v641q0 95 -34.5 138t-120.5 43h-330v-822q0 -83 43.5 -115 t132.5 -32v-43q-10 0 -44 2q-180 6 -224 6q-59 0 -215 -6q-26 -2 -33 -2v43q58 0 91 13t48.5 45t15.5 89v822h-473v-822q0 -57 15.5 -89t49 -45t91.5 -13v-43l-32 1q-126 7 -214 7q-87 0 -218 -7l-32 -1v43q58 0 91.5 13t49 45t15.5 89v822h-164zM400 1053h473q0 176 58 293 q-44 62 -113.5 99.5t-152.5 37.5q-265 0 -265 -326v-104z" />
<glyph unicode="&#xfb04;" horiz-adv-x="1929" d="M52 1012v41h164q0 217 100 333q56 62 139.5 98t184.5 36q185 0 288 -112q29 57 77 99q54 48 126 71.5t150 23.5q40 0 122 -12q93 -13 134 -13q108 0 191 29v-1416q0 -57 15.5 -89t48.5 -45t91 -13v-43l-31 1q-126 7 -217 7q-90 0 -216 -7l-31 -1v43q58 0 91 13t48.5 45 t15.5 89v1141q0 63 -13.5 102.5t-41.5 67.5q-36 36 -91 53t-106 17q-102 0 -162 -64q-43 -43 -57 -106.5t-14 -155.5v-192h260v-41h-260v-822q0 -83 43.5 -115t132.5 -32v-43q-10 0 -44 2q-180 6 -224 6q-59 0 -215 -6q-26 -2 -33 -2v43q58 0 91 13t48.5 45t15.5 89v822 h-473v-822q0 -57 15.5 -89t49 -45t91.5 -13v-43l-32 1q-126 7 -214 7q-87 0 -218 -7l-32 -1v43q58 0 91.5 13t49 45t15.5 89v822h-164zM400 1053h473q0 105 8 181.5t30 136.5q-44 52 -108 82t-138 30q-265 0 -265 -326v-104z" />
</font>
</defs>
</svg>
